<?xml version="1.0" encoding="UTF-8"?>
<svg version="1.1" xmlns="http://www.w3.org/2000/svg" width="299" height="180">
<path d="M0 0 C98.67 0 197.34 0 299 0 C299 59.4 299 118.8 299 180 C200.33 180 101.66 180 0 180 C0 120.6 0 61.2 0 0 Z " fill="#020202" transform="translate(0,0)"/>
<path d="M0 0 C6.08938815 0.4281601 11.30700805 1.93719891 17 4.0625 C20.96 5.5165625 20.96 5.5165625 25 7 C25.99 15.415 25.99 15.415 27 24 C28.32 23.67 29.64 23.34 31 23 C33.53111195 23.98351778 35.79638452 25.00182304 38.1875 26.25 C38.82880859 26.56324219 39.47011719 26.87648438 40.13085938 27.19921875 C44.8705324 29.61159721 44.8705324 29.61159721 46 33 C46.12781786 35.67394964 46.04391871 38.32095857 46 41 C46.44279297 40.66790527 46.88558594 40.33581055 47.34179688 39.99365234 C57.71875 32.2109375 57.71875 32.2109375 59.85546875 30.61621094 C61.30562879 29.52330799 62.74556766 28.41673051 64.17578125 27.29785156 C64.87058594 26.75870117 65.56539063 26.21955078 66.28125 25.6640625 C66.90064453 25.17631348 67.52003906 24.68856445 68.15820312 24.18603516 C70.1483624 22.90446122 71.6542592 22.30089818 74 22 C76.140625 23.43359375 76.140625 23.43359375 78.25 25.4375 C78.95640625 26.09621094 79.6628125 26.75492188 80.390625 27.43359375 C81.18726563 28.20896484 81.18726563 28.20896484 82 29 C82.99 28.505 82.99 28.505 84 28 C86.62380313 27.84339117 89.22524852 27.7417092 91.8515625 27.68359375 C93.01261002 27.6524221 93.01261002 27.6524221 94.19711304 27.62062073 C96.67298392 27.55516552 99.14896202 27.49625913 101.625 27.4375 C103.30209448 27.39431093 104.97917807 27.35069652 106.65625 27.30664062 C110.77072308 27.19948829 114.88530414 27.09820955 119 27 C119.05551025 26.413396 119.11102051 25.82679199 119.16821289 25.22241211 C119.60997758 20.87207751 120.1422878 16.75684003 121.4375 12.5625 C121.68371094 11.73878906 121.92992187 10.91507813 122.18359375 10.06640625 C123 8 123 8 125 6 C126.80004883 5.58935547 126.80004883 5.58935547 128.95703125 5.3671875 C129.74013672 5.28339844 130.52324219 5.19960938 131.33007812 5.11328125 C132.14927734 5.03464844 132.96847656 4.95601562 133.8125 4.875 C134.62009766 4.78863281 135.42769531 4.70226562 136.25976562 4.61328125 C144.31018379 3.78252557 144.31018379 3.78252557 148 4 C148.33 4.33 148.66 4.66 149 5 C148.71269945 7.33944736 148.38063221 9.6739143 148 12 C148.85851562 11.69320312 149.71703125 11.38640625 150.6015625 11.0703125 C158.48186315 8.58847069 166.76093726 7.6768995 175 8 C175.88207936 10.45320685 176.10244103 11.68400855 175.28735352 14.19824219 C174.90506592 14.97329102 174.52277832 15.74833984 174.12890625 16.546875 C173.71962891 17.39121094 173.31035156 18.23554687 172.88867188 19.10546875 C172.45103516 19.97816406 172.01339844 20.85085937 171.5625 21.75 C171.12873047 22.63816406 170.69496094 23.52632812 170.24804688 24.44140625 C169.17580868 26.63301399 168.09289767 28.8186409 167 31 C167.58305908 30.69819824 168.16611816 30.39639648 168.7668457 30.08544922 C176.65855898 26.02215365 184.77830564 22.45554714 192.91552734 18.91699219 C194.26177022 18.32475885 195.60135013 17.71702958 196.93212891 17.09082031 C203.25360126 14.17532103 203.25360126 14.17532103 207 15 C209.48675887 16.67925045 211.59611615 18.66871898 213.75 20.75 C214.63365234 21.55824219 214.63365234 21.55824219 215.53515625 22.3828125 C220.41751918 26.98457986 220.41751918 26.98457986 221 31 C219.2023484 44.33376226 219.2023484 44.33376226 215.08984375 49.3125 C213.10592669 50.79580248 211.23624093 51.94302675 209 53 C207.88625 53.56074219 207.88625 53.56074219 206.75 54.1328125 C206.1725 54.41898438 205.595 54.70515625 205 55 C205.33 57.31 205.66 59.62 206 62 C200.51041612 65.57771375 194.87178637 66.79580982 188.5625 68.3125 C187.44294922 68.60189453 186.32339844 68.89128906 185.16992188 69.18945312 C184.08388672 69.45306641 182.99785156 69.71667969 181.87890625 69.98828125 C180.8947876 70.23102783 179.91066895 70.47377441 178.89672852 70.72387695 C174.14648567 71.17668139 170.99028244 69.77991898 167.296875 66.87109375 C166.45640625 66.06800781 165.6159375 65.26492187 164.75 64.4375 C161.63136653 61.35343369 161.63136653 61.35343369 158 59 C157.67 58.01 157.34 57.02 157 56 C156.72285156 56.78246094 156.44570312 57.56492188 156.16015625 58.37109375 C155.79792969 59.38300781 155.43570313 60.39492187 155.0625 61.4375 C154.52302734 62.95150391 154.52302734 62.95150391 153.97265625 64.49609375 C153 67 153 67 152 68 C149.65012738 68.23527773 147.29443961 68.41386417 144.9375 68.5625 C143.64714844 68.64628906 142.35679687 68.73007813 141.02734375 68.81640625 C140.02832031 68.87699219 139.02929688 68.93757813 138 69 C137.16759431 65.22969185 136.73352045 61.53576586 136.4375 57.6875 C136.35371094 56.61886719 136.26992187 55.55023438 136.18359375 54.44921875 C136.12300781 53.64097656 136.06242188 52.83273438 136 52 C135.89042969 53.12019531 135.78085938 54.24039063 135.66796875 55.39453125 C135.50850107 56.86726222 135.34830683 58.33991465 135.1875 59.8125 C135.11724609 60.55048828 135.04699219 61.28847656 134.97460938 62.04882812 C134.64410964 64.97044581 134.29294218 67.4774545 132.84375 70.0625 C129.88098627 71.56899003 127.51385555 70.7897352 124.3125 70.1875 C123.13300781 69.97480469 121.95351562 69.76210937 120.73828125 69.54296875 C119.83464844 69.36378906 118.93101562 69.18460937 118 69 C115.72682156 63.08279506 116.16271472 59.19591109 117 53 C112.05 54.485 112.05 54.485 107 56 C106.773125 57.588125 106.54625 59.17625 106.3125 60.8125 C105.81987064 64.26090553 105.53163528 65.56296175 102.8046875 67.8046875 C99.5940755 69.17299846 97.2913213 69.36867972 93.8125 69.3125 C92.76707031 69.30863281 91.72164062 69.30476563 90.64453125 69.30078125 C88 69 88 69 86 67 C86 65.68 86 64.36 86 63 C85.04738281 63.3609375 84.09476563 63.721875 83.11328125 64.09375 C81.84651116 64.56292411 80.5795752 65.03165052 79.3125 65.5 C78.68666016 65.73847656 78.06082031 65.97695312 77.41601562 66.22265625 C73.07714608 67.81281786 69.45974325 68.84553674 65 67.3125 C62.80921153 66.75140687 62.80921153 66.75140687 60.5 68.5 C58 70 58 70 56 69.9375 C54 69 54 69 51.82421875 66.93359375 C48.1649627 64.42829397 46.17346047 64.69303974 41.8125 65.125 C40.58144531 65.23070313 39.35039063 65.33640625 38.08203125 65.4453125 C34.90510599 65.71444282 34.90510599 65.71444282 33 68 C30.875 67.625 30.875 67.625 29 67 C28.505 64.03 28.505 64.03 28 61 C27.52691406 61.52851562 27.05382812 62.05703125 26.56640625 62.6015625 C21.31091093 67.90828098 21.31091093 67.90828098 17.7109375 68.16015625 C15.3211399 67.6633083 13.2436055 66.95925173 11 66 C9.96552734 65.58427734 9.96552734 65.58427734 8.91015625 65.16015625 C7 64.25 7 64.25 4 62 C3.3125 58.859375 3.3125 58.859375 3 56 C2.37432129 56.30292969 1.74864258 56.60585937 1.10400391 56.91796875 C-1.7204062 58.28267165 -4.54764837 59.64140247 -7.375 61 C-8.85226563 61.71542969 -8.85226563 61.71542969 -10.359375 62.4453125 C-11.30039062 62.89648438 -12.24140625 63.34765625 -13.2109375 63.8125 C-14.08024902 64.23144531 -14.94956055 64.65039062 -15.84521484 65.08203125 C-18 66 -18 66 -20 66 C-20 66.66 -20 67.32 -20 68 C-18.90429688 67.95230469 -17.80859375 67.90460938 -16.6796875 67.85546875 C-11.30898707 67.85901924 -6.32121533 69.04963151 -1.125 70.3125 C-0.17625 70.52583984 0.7725 70.73917969 1.75 70.95898438 C2.65492187 71.17490234 3.55984375 71.39082031 4.4921875 71.61328125 C5.31058105 71.80704346 6.12897461 72.00080566 6.97216797 72.20043945 C9 73 9 73 11 76 C10.67 76.66 10.34 77.32 10 78 C16.6 78 23.2 78 30 78 C30 79.65 30 81.3 30 83 C30.4940332 82.72212646 30.98806641 82.44425293 31.49707031 82.15795898 C33.7411966 80.90504991 35.99525701 79.67119271 38.25 78.4375 C39.02730469 77.99986328 39.80460937 77.56222656 40.60546875 77.11132812 C41.35957031 76.70205078 42.11367187 76.29277344 42.890625 75.87109375 C43.58188477 75.48880615 44.27314453 75.10651855 44.98535156 74.71264648 C47.46765316 73.83457591 48.59421059 73.96405174 51 75 C51.99 76.485 51.99 76.485 53 78 C55.88893519 78.22222578 58.55748481 78.28025028 61.4375 78.1875 C62.21416016 78.17396484 62.99082031 78.16042969 63.79101562 78.14648438 C65.86091441 78.10904435 67.93050344 78.05537801 70 78 C72.09518318 78 74.1904528 78.02547937 76.28515625 78.0703125 C77.53167969 78.08835937 78.77820313 78.10640625 80.0625 78.125 C81.31160156 78.14820312 82.56070313 78.17140625 83.84765625 78.1953125 C87.09828265 78.34306834 87.09828265 78.34306834 89 76 C92.44165321 76.35299007 94.06872538 77.04581692 97 79 C99.54561658 79.27527849 102.01085261 79.46352408 104.5625 79.5625 C111.76160991 79.88080495 111.76160991 79.88080495 114 81 C114.33 80.01 114.66 79.02 115 78 C120.37940412 78.22891081 124.76651417 79.57960629 129.2421875 82.63671875 C132.99036874 87.6759402 131.5743943 95.02913582 131 101 C131.66 101 132.32 101 133 101 C134.848066 104.69613201 134.21061031 108.70625094 133.5625 112.6875 C131.03061178 116.43469456 127.26516348 117.7792808 123 119 C119.9375 118.75 119.9375 118.75 118 118 C117.34 116.02 116.68 114.04 116 112 C114.02 115.63 112.04 119.26 110 123 C99.59887994 119.78788939 99.59887994 119.78788939 97 117 C96.609375 113.64453125 96.609375 113.64453125 96.75 109.8125 C96.78609375 108.54019531 96.8221875 107.26789063 96.859375 105.95703125 C96.90578125 104.98121094 96.9521875 104.00539063 97 103 C96.34 103 95.68 103 95 103 C94.75507813 103.68449219 94.51015625 104.36898437 94.2578125 105.07421875 C92.77245937 108.52927929 90.87594838 111.6413857 88.875 114.8125 C88.50246094 115.40998047 88.12992188 116.00746094 87.74609375 116.62304688 C86.8342952 118.08426251 85.91764024 119.54244585 85 121 C81.04 120.67 77.08 120.34 73 120 C72.67 119.01 72.34 118.02 72 117 C71.34 117 70.68 117 70 117 C70 117.99 70 118.98 70 120 C64.74169479 120.31549831 61.52070968 119.73345236 57 117 C56.34 116.34 55.68 115.68 55 115 C55 114.01 55 113.02 55 112 C53.91460937 112.66128906 52.82921875 113.32257813 51.7109375 114.00390625 C50.26614317 114.85764835 48.82080149 115.71046462 47.375 116.5625 C46.66214844 117.00013672 45.94929688 117.43777344 45.21484375 117.88867188 C41.7999456 119.87808502 39.71995263 121.0034121 35.703125 120.984375 C32.80415334 119.92868012 31.42824813 118.95969639 29.375 116.6875 C28.50101563 115.74003906 28.50101563 115.74003906 27.609375 114.7734375 C26.81273438 113.89558594 26.81273438 113.89558594 26 113 C25.21625 112.278125 24.4325 111.55625 23.625 110.8125 C21.85066613 108.8334353 21.26310695 107.63106948 21 105 C21.33 104.34 21.66 103.68 22 103 C20.02498053 103.13978974 20.02498053 103.13978974 18 104 C16.96021615 106.07752563 16.96021615 106.07752563 16.4375 108.625 C16.19644531 109.52476562 15.95539063 110.42453125 15.70703125 111.3515625 C15.47371094 112.22554688 15.24039063 113.09953125 15 114 C13.00996933 120.32668712 13.00996933 120.32668712 9.9375 122.375 C5.67103843 123.28275778 1.36551416 123.89490429 -3 124 C-4 123 -4 123 -4.09765625 119.40234375 C-4.0909822 117.91403133 -4.07902183 116.42573568 -4.0625 114.9375 C-4.05798828 114.17888672 -4.05347656 113.42027344 -4.04882812 112.63867188 C-4.0370068 110.75908129 -4.01907078 108.87953101 -4 107 C-4.75337646 107.5576001 -4.75337646 107.5576001 -5.52197266 108.12646484 C-10.50402489 111.81161631 -15.4941802 115.48553357 -20.48974609 119.15234375 C-22.74522495 120.81247446 -24.9925888 122.48292537 -27.23828125 124.15625 C-28.47096288 125.06303216 -29.70400951 125.96931844 -30.9375 126.875 C-31.49711426 127.29700684 -32.05672852 127.71901367 -32.63330078 128.15380859 C-35.81917738 130.47215103 -36.89354935 131 -41 131 C-43.89401492 129.72731517 -46.51124916 127.98961719 -49.1875 126.3125 C-50.29254883 125.65991211 -50.29254883 125.65991211 -51.41992188 124.99414062 C-56.71162304 121.70812564 -56.71162304 121.70812564 -58.0546875 118.41015625 C-58.00058547 116.02580266 -57.75721299 114.35569438 -56.9375 112.125 C-56.65777344 111.35671875 -56.37804687 110.5884375 -56.08984375 109.796875 C-52.84796307 101.47720988 -49.54044248 93.19781028 -46 85 C-46.99 85 -47.98 85 -49 85 C-48.43497299 79.82834104 -47.28715487 75.48648627 -45.3125 70.625 C-44.83425781 69.40039062 -44.35601562 68.17578125 -43.86328125 66.9140625 C-42 64 -42 64 -38.79296875 63.0859375 C-37.41044922 63.04339844 -37.41044922 63.04339844 -36 63 C-37.48113281 62.27490234 -37.48113281 62.27490234 -38.9921875 61.53515625 C-43.68958234 58.72620412 -47.37612677 55.89621026 -50 51 C-52.42272942 40.26703337 -52.14880273 28.95112783 -52 18 C-48.33748589 16.0813337 -44.87835692 14.52605237 -40.8828125 13.46484375 C-39.47708984 13.08682617 -39.47708984 13.08682617 -38.04296875 12.70117188 C-37.08003906 12.44916016 -36.11710937 12.19714844 -35.125 11.9375 C-34.16980469 11.68162109 -33.21460937 11.42574219 -32.23046875 11.16210938 C-29.48962675 10.4308422 -26.7455807 9.71324102 -24 9 C-23.21359131 8.79189697 -22.42718262 8.58379395 -21.61694336 8.36938477 C-14.59022694 6.54450259 -14.59022694 6.54450259 -11 8 C-8.625 10.1875 -8.625 10.1875 -6 13 C-3.7027502 15.04306558 -1.35555055 17.02459593 1 19 C0.855625 18.20335938 0.71125 17.40671875 0.5625 16.5859375 C0.376875 15.52632812 0.19125 14.46671875 0 13.375 C-0.185625 12.33085938 -0.37125 11.28671875 -0.5625 10.2109375 C-0.98879664 7.08222467 -1.14792921 4.1527413 -1 1 C-0.67 0.67 -0.34 0.34 0 0 Z " fill="#F3F3F3" transform="translate(68,23)"/>
<path d="M0 0 C2.375 2.1875 2.375 2.1875 5 5 C6.79238146 6.58631591 8.61687157 8.12814706 10.44921875 9.66796875 C11.68048318 10.72555357 12.85228537 11.85228537 14 13 C13.34 13.33 12.68 13.66 12 14 C11.34786708 16.02463255 11.34786708 16.02463255 11 18 C10.34 17.34 9.68 16.68 9 16 C8.54367188 15.55398437 8.08734375 15.10796875 7.6171875 14.6484375 C6.41420729 13.42221129 5.25963753 12.1481185 4.1328125 10.8515625 C3.47023437 10.11679687 2.80765625 9.38203125 2.125 8.625 C1.20074219 7.56152344 1.20074219 7.56152344 0.2578125 6.4765625 C-2.40073297 4.73792896 -3.81852772 4.8275958 -6.88134766 5.45800781 C-11.35512384 6.60248616 -15.80801975 7.7996415 -20.25 9.0625 C-22.2125465 9.61940443 -24.17605068 10.17294812 -26.140625 10.72265625 C-27.43274902 11.09015991 -27.43274902 11.09015991 -28.75097656 11.46508789 C-31 12 -31 12 -34 12 C-33.85969417 15.66689972 -33.71174579 19.33345412 -33.5625 23 C-33.52318359 24.02996094 -33.48386719 25.05992188 -33.44335938 26.12109375 C-33.35928678 28.15177026 -33.26100499 30.18191239 -33.14794922 32.21118164 C-33.05827895 33.90145148 -32.99911187 35.59422041 -32.99658203 37.28686523 C-32.8315236 41.53173745 -31.69306939 43.73996134 -28.796875 46.66015625 C-27.46616795 47.81563158 -26.11645131 48.94952412 -24.75 50.0625 C-24.08097656 50.65482422 -23.41195312 51.24714844 -22.72265625 51.85742188 C-19.16889296 55.16002033 -19.16889296 55.16002033 -14.60717773 55.81274414 C-11.7571537 54.92429672 -9.22172282 53.79536104 -6.55078125 52.4609375 C-5.53822266 51.96335938 -4.52566406 51.46578125 -3.48242188 50.953125 C-1.35663198 49.89481432 0.76835994 48.83489936 2.89257812 47.7734375 C3.90126953 47.2784375 4.90996094 46.7834375 5.94921875 46.2734375 C6.87049561 45.81372559 7.79177246 45.35401367 8.7409668 44.88037109 C9.48644775 44.58984863 10.23192871 44.29932617 11 44 C11.99 44.495 11.99 44.495 13 45 C13.33 45.99 13.66 46.98 14 48 C10.54466686 49.67294007 7.08526007 51.33727763 3.625 53 C2.14773437 53.71542969 2.14773437 53.71542969 0.640625 54.4453125 C-0.30039062 54.89648438 -1.24140625 55.34765625 -2.2109375 55.8125 C-3.08024902 56.23144531 -3.94956055 56.65039062 -4.84521484 57.08203125 C-7 58 -7 58 -9 58 C-9 58.66 -9 59.32 -9 60 C-7.35644531 59.92845703 -7.35644531 59.92845703 -5.6796875 59.85546875 C-0.30898707 59.85901924 4.67878467 61.04963151 9.875 62.3125 C11.298125 62.63250977 11.298125 62.63250977 12.75 62.95898438 C13.65492187 63.17490234 14.55984375 63.39082031 15.4921875 63.61328125 C16.31058105 63.80704346 17.12897461 64.00080566 17.97216797 64.20043945 C20 65 20 65 22 68 C21.67 68.66 21.34 69.32 21 70 C27.6 70 34.2 70 41 70 C41 71.65 41 73.3 41 75 C41.4940332 74.72212646 41.98806641 74.44425293 42.49707031 74.15795898 C44.7411966 72.90504991 46.99525701 71.67119271 49.25 70.4375 C50.02730469 69.99986328 50.80460937 69.56222656 51.60546875 69.11132812 C52.35957031 68.70205078 53.11367187 68.29277344 53.890625 67.87109375 C54.58188477 67.48880615 55.27314453 67.10651855 55.98535156 66.71264648 C58.46765316 65.83457591 59.59421059 65.96405174 62 67 C62.99 68.485 62.99 68.485 64 70 C66.88893519 70.22222578 69.55748481 70.28025028 72.4375 70.1875 C73.21416016 70.17396484 73.99082031 70.16042969 74.79101562 70.14648438 C76.86091441 70.10904435 78.93050344 70.05537801 81 70 C83.09518318 70 85.1904528 70.02547937 87.28515625 70.0703125 C88.53167969 70.08835937 89.77820313 70.10640625 91.0625 70.125 C92.31160156 70.14820312 93.56070313 70.17140625 94.84765625 70.1953125 C98.09828265 70.34306834 98.09828265 70.34306834 100 68 C103.44165321 68.35299007 105.06872538 69.04581692 108 71 C110.54561658 71.27527849 113.01085261 71.46352408 115.5625 71.5625 C122.76160991 71.88080495 122.76160991 71.88080495 125 73 C125.33 72.01 125.66 71.02 126 70 C131.37940412 70.22891081 135.76651417 71.57960629 140.2421875 74.63671875 C143.99036874 79.6759402 142.5743943 87.02913582 142 93 C142.66 93 143.32 93 144 93 C145.848066 96.69613201 145.21061031 100.70625094 144.5625 104.6875 C142.03061178 108.43469456 138.26516348 109.7792808 134 111 C130.9375 110.75 130.9375 110.75 129 110 C128.34 108.02 127.68 106.04 127 104 C125.02 107.63 123.04 111.26 121 115 C110.59887994 111.78788939 110.59887994 111.78788939 108 109 C107.609375 105.64453125 107.609375 105.64453125 107.75 101.8125 C107.78609375 100.54019531 107.8221875 99.26789063 107.859375 97.95703125 C107.90578125 96.98121094 107.9521875 96.00539063 108 95 C107.34 95 106.68 95 106 95 C105.75507813 95.68449219 105.51015625 96.36898437 105.2578125 97.07421875 C103.77245937 100.52927929 101.87594838 103.6413857 99.875 106.8125 C99.50246094 107.40998047 99.12992188 108.00746094 98.74609375 108.62304688 C97.8342952 110.08426251 96.91764024 111.54244585 96 113 C92.04 112.67 88.08 112.34 84 112 C83.67 111.01 83.34 110.02 83 109 C82.34 109 81.68 109 81 109 C81 109.99 81 110.98 81 112 C75.74169479 112.31549831 72.52070968 111.73345236 68 109 C67.34 108.34 66.68 107.68 66 107 C66 106.01 66 105.02 66 104 C64.91460937 104.66128906 63.82921875 105.32257813 62.7109375 106.00390625 C61.26614317 106.85764835 59.82080149 107.71046462 58.375 108.5625 C57.66214844 109.00013672 56.94929688 109.43777344 56.21484375 109.88867188 C52.7999456 111.87808502 50.71995263 113.0034121 46.703125 112.984375 C43.80415334 111.92868012 42.42824813 110.95969639 40.375 108.6875 C39.50101563 107.74003906 39.50101563 107.74003906 38.609375 106.7734375 C37.81273438 105.89558594 37.81273438 105.89558594 37 105 C36.21625 104.278125 35.4325 103.55625 34.625 102.8125 C32.85066613 100.8334353 32.26310695 99.63106948 32 97 C32.33 96.34 32.66 95.68 33 95 C31.02498053 95.13978974 31.02498053 95.13978974 29 96 C27.96021615 98.07752563 27.96021615 98.07752563 27.4375 100.625 C27.19644531 101.52476562 26.95539063 102.42453125 26.70703125 103.3515625 C26.47371094 104.22554688 26.24039063 105.09953125 26 106 C24.00996933 112.32668712 24.00996933 112.32668712 20.9375 114.375 C16.67103843 115.28275778 12.36551416 115.89490429 8 116 C7 115 7 115 6.90234375 111.40234375 C6.9090178 109.91403133 6.92097817 108.42573568 6.9375 106.9375 C6.94201172 106.17888672 6.94652344 105.42027344 6.95117188 104.63867188 C6.9629932 102.75908129 6.98092922 100.87953101 7 99 C6.24662354 99.5576001 6.24662354 99.5576001 5.47802734 100.12646484 C0.49597511 103.81161631 -4.4941802 107.48553357 -9.48974609 111.15234375 C-11.74522495 112.81247446 -13.9925888 114.48292537 -16.23828125 116.15625 C-17.47096288 117.06303216 -18.70400951 117.96931844 -19.9375 118.875 C-20.49711426 119.29700684 -21.05672852 119.71901367 -21.63330078 120.15380859 C-24.81917738 122.47215103 -25.89354935 123 -30 123 C-32.89401492 121.72731517 -35.51124916 119.98961719 -38.1875 118.3125 C-39.29254883 117.65991211 -39.29254883 117.65991211 -40.41992188 116.99414062 C-45.71162304 113.70812564 -45.71162304 113.70812564 -47.0546875 110.41015625 C-47.00058547 108.02580266 -46.75721299 106.35569438 -45.9375 104.125 C-45.65777344 103.35671875 -45.37804687 102.5884375 -45.08984375 101.796875 C-41.84796307 93.47720988 -38.54044248 85.19781028 -35 77 C-35.99 77 -36.98 77 -38 77 C-37.43497299 71.82834104 -36.28715487 67.48648627 -34.3125 62.625 C-33.83425781 61.40039062 -33.35601562 60.17578125 -32.86328125 58.9140625 C-31 56 -31 56 -27.79296875 55.0859375 C-26.41044922 55.04339844 -26.41044922 55.04339844 -25 55 C-26.48113281 54.27490234 -26.48113281 54.27490234 -27.9921875 53.53515625 C-32.68958234 50.72620412 -36.37612677 47.89621026 -39 43 C-41.42272942 32.26703337 -41.14880273 20.95112783 -41 10 C-37.33748589 8.0813337 -33.87835692 6.52605237 -29.8828125 5.46484375 C-28.94566406 5.21283203 -28.00851563 4.96082031 -27.04296875 4.70117188 C-26.08003906 4.44916016 -25.11710937 4.19714844 -24.125 3.9375 C-23.16980469 3.68162109 -22.21460937 3.42574219 -21.23046875 3.16210938 C-18.48962675 2.4308422 -15.7455807 1.71324102 -13 1 C-12.21359131 0.79189697 -11.42718262 0.58379395 -10.61694336 0.36938477 C-3.59022694 -1.45549741 -3.59022694 -1.45549741 0 0 Z " fill="#EFEFEF" transform="translate(57,31)"/>
<path d="M0 0 C6.08938815 0.4281601 11.30700805 1.93719891 17 4.0625 C20.96 5.5165625 20.96 5.5165625 25 7 C25.99 15.415 25.99 15.415 27 24 C28.32 23.67 29.64 23.34 31 23 C33.53111195 23.98351778 35.79638452 25.00182304 38.1875 26.25 C38.82880859 26.56324219 39.47011719 26.87648438 40.13085938 27.19921875 C44.8705324 29.61159721 44.8705324 29.61159721 46 33 C46.12781786 35.67394964 46.04391871 38.32095857 46 41 C46.46897705 40.64172119 46.9379541 40.28344238 47.42114258 39.91430664 C49.54843776 38.29284609 51.6803902 36.67762359 53.8125 35.0625 C54.55048828 34.49853516 55.28847656 33.93457031 56.04882812 33.35351562 C57.11713867 32.54624023 57.11713867 32.54624023 58.20703125 31.72265625 C58.8616333 31.22515869 59.51623535 30.72766113 60.19067383 30.21508789 C62 29 62 29 65 28 C65 28.99 65 29.98 65 31 C65.66 31.33 66.32 31.66 67 32 C63.12782826 35.37785195 59.21103358 38.67830908 55.1875 41.875 C54.43855469 42.47054687 53.68960938 43.06609375 52.91796875 43.6796875 C51 45 51 45 49 45 C49.32742187 45.69480469 49.65484375 46.38960937 49.9921875 47.10546875 C51.12662831 50.36368828 51.20056055 52.87449502 51.125 56.3125 C51.10695313 57.38113281 51.08890625 58.44976562 51.0703125 59.55078125 C51.04710938 60.35902344 51.02390625 61.16726562 51 62 C46.8216998 63.71608758 43.13082743 65.11686872 38.625 65.5625 C34.96230213 65.6261733 34.96230213 65.6261733 33 68 C30.875 67.625 30.875 67.625 29 67 C28.505 64.03 28.505 64.03 28 61 C27.52691406 61.52851562 27.05382812 62.05703125 26.56640625 62.6015625 C21.31091093 67.90828098 21.31091093 67.90828098 17.7109375 68.16015625 C15.32440829 67.6639878 13.24328861 66.95047776 11 66 C10.00033203 65.63648437 10.00033203 65.63648437 8.98046875 65.265625 C6.11860116 63.98832831 4.29986371 62.68828544 3.03857422 59.79321289 C2.7963916 58.9861792 2.55420898 58.17914551 2.3046875 57.34765625 C2.05444824 56.53433838 1.80420898 55.72102051 1.54638672 54.88305664 C1.3660791 54.26164795 1.18577148 53.64023926 1 53 C0.19163696 53.3853894 0.19163696 53.3853894 -0.63305664 53.77856445 C-3.10887397 54.95794222 -5.58567795 56.13523381 -8.0625 57.3125 C-9.33383789 57.91868164 -9.33383789 57.91868164 -10.63085938 58.53710938 C-12.30368923 59.33154208 -13.97895914 60.12085901 -15.65673828 60.90478516 C-17.12418798 61.59065506 -18.5869794 62.28668394 -20.04248047 62.99755859 C-24.4630884 65.07152605 -24.4630884 65.07152605 -26.96826172 64.73779297 C-30.79523476 63.34808947 -33.61908583 60.54463022 -36.6875 57.9375 C-37.37650391 57.38900391 -38.06550781 56.84050781 -38.77539062 56.27539062 C-42.19461233 53.37392717 -43.80626582 51.74873498 -44.953125 47.31640625 C-45.00772692 45.8785557 -45.01885646 44.43876336 -45 43 C-45.01780518 42.07952881 -45.03561035 41.15905762 -45.05395508 40.21069336 C-45.09835685 37.13903332 -45.08748988 34.07183335 -45.0625 31 C-45.05573242 29.40865234 -45.05573242 29.40865234 -45.04882812 27.78515625 C-45.03713843 25.19004402 -45.02075276 22.59505291 -45 20 C-41.10813199 18.82782413 -37.21213115 17.67069949 -33.31176758 16.52709961 C-31.98666608 16.13631684 -30.66274591 15.74150412 -29.34008789 15.3425293 C-27.43434114 14.76844011 -25.52384066 14.21020735 -23.61328125 13.65234375 C-21.89298706 13.14175415 -21.89298706 13.14175415 -20.13793945 12.62084961 C-16.94441614 11.98900259 -15.07630658 12.0152026 -12 13 C-9.90234375 14.70703125 -9.90234375 14.70703125 -7.9375 16.8125 C-7.28652344 17.49957031 -6.63554688 18.18664062 -5.96484375 18.89453125 C-4.99224609 19.93673828 -4.99224609 19.93673828 -4 21 C-2.67129625 22.3379469 -1.33928562 23.67264565 0 25 C1.09792928 20.87700682 0.81552166 17.74103194 0.0625 13.5625 C-0.69608601 9.30738507 -1.2103743 5.32861068 -1 1 C-0.67 0.67 -0.34 0.34 0 0 Z M2 50 C3 52 3 52 3 52 Z " fill="#F2F2F2" transform="translate(68,23)"/>
<path d="M0 0 C0.99 1.485 0.99 1.485 2 3 C4.88893519 3.22222578 7.55748481 3.28025028 10.4375 3.1875 C11.60249023 3.16719727 11.60249023 3.16719727 12.79101562 3.14648438 C14.86091441 3.10904435 16.93050344 3.05537801 19 3 C21.09518318 3 23.1904528 3.02547937 25.28515625 3.0703125 C27.15494141 3.09738281 27.15494141 3.09738281 29.0625 3.125 C30.31160156 3.14820312 31.56070313 3.17140625 32.84765625 3.1953125 C36.09828265 3.34306834 36.09828265 3.34306834 38 1 C41.44165321 1.35299007 43.06872538 2.04581692 46 4 C48.54561658 4.27527849 51.01085261 4.46352408 53.5625 4.5625 C60.76160991 4.88080495 60.76160991 4.88080495 63 6 C63.33 5.01 63.66 4.02 64 3 C69.37940412 3.22891081 73.76651417 4.57960629 78.2421875 7.63671875 C81.99036874 12.6759402 80.5743943 20.02913582 80 26 C80.66 26 81.32 26 82 26 C83.848066 29.69613201 83.21061031 33.70625094 82.5625 37.6875 C80.03061178 41.43469456 76.26516348 42.7792808 72 44 C68.9375 43.75 68.9375 43.75 67 43 C66.01 40.03 66.01 40.03 65 37 C63.02 40.63 61.04 44.26 59 48 C48.59887994 44.78788939 48.59887994 44.78788939 46 42 C45.609375 38.64453125 45.609375 38.64453125 45.75 34.8125 C45.78609375 33.54019531 45.8221875 32.26789063 45.859375 30.95703125 C45.90578125 29.98121094 45.9521875 29.00539063 46 28 C45.34 28 44.68 28 44 28 C43.75507813 28.68449219 43.51015625 29.36898437 43.2578125 30.07421875 C41.77245937 33.52927929 39.87594838 36.6413857 37.875 39.8125 C37.50246094 40.40998047 37.12992187 41.00746094 36.74609375 41.62304688 C35.8342952 43.08426251 34.91764024 44.54244585 34 46 C30.04 45.67 26.08 45.34 22 45 C21.67 44.01 21.34 43.02 21 42 C20.34 42 19.68 42 19 42 C19 42.99 19 43.98 19 45 C13.74169479 45.31549831 10.52070968 44.73345236 6 42 C5.34 41.34 4.68 40.68 4 40 C4 39.01 4 38.02 4 37 C2.91460937 37.66128906 1.82921875 38.32257813 0.7109375 39.00390625 C-0.73385683 39.85764835 -2.17919851 40.71046462 -3.625 41.5625 C-4.33785156 42.00013672 -5.05070312 42.43777344 -5.78515625 42.88867188 C-9.2000544 44.87808502 -11.28004737 46.0034121 -15.296875 45.984375 C-18.19584666 44.92868012 -19.57175187 43.95969639 -21.625 41.6875 C-22.20765625 41.05585938 -22.7903125 40.42421875 -23.390625 39.7734375 C-24.18726562 38.89558594 -24.18726562 38.89558594 -25 38 C-25.78375 37.278125 -26.5675 36.55625 -27.375 35.8125 C-29.14933387 33.8334353 -29.73689305 32.63106948 -30 30 C-29.67 29.34 -29.34 28.68 -29 28 C-30.97501947 28.13978974 -30.97501947 28.13978974 -33 29 C-34.03978385 31.07752563 -34.03978385 31.07752563 -34.5625 33.625 C-34.80355469 34.52476562 -35.04460937 35.42453125 -35.29296875 36.3515625 C-35.52628906 37.22554687 -35.75960937 38.09953125 -36 39 C-37.99003067 45.32668712 -37.99003067 45.32668712 -41.0625 47.375 C-45.32896157 48.28275778 -49.63448584 48.89490429 -54 49 C-55 48 -55 48 -55.09765625 44.40234375 C-55.0909822 42.91403133 -55.07902183 41.42573568 -55.0625 39.9375 C-55.05798828 39.17888672 -55.05347656 38.42027344 -55.04882812 37.63867188 C-55.0370068 35.75908129 -55.01907078 33.87953101 -55 32 C-55.75337646 32.5576001 -55.75337646 32.5576001 -56.52197266 33.12646484 C-62.33931449 37.42946786 -68.16538196 41.72045073 -74 46 C-74.73976074 46.54269531 -75.47952148 47.08539063 -76.24169922 47.64453125 C-78.17777906 49.06057264 -80.11885398 50.46936941 -82.0625 51.875 C-82.63887207 52.29700684 -83.21524414 52.71901367 -83.80908203 53.15380859 C-87.76863299 56 -87.76863299 56 -90 56 C-89.51144683 50.58011331 -89.51144683 50.58011331 -87.3125 48.0859375 C-86.549375 47.52132812 -85.78625 46.95671875 -85 46.375 C-84.11054687 45.70855469 -83.22109375 45.04210937 -82.3046875 44.35546875 C-81.205063 43.5676006 -80.10327818 42.7827436 -79 42 C-78.31583008 41.51096191 -77.63166016 41.02192383 -76.92675781 40.51806641 C-72.55533163 37.39876208 -68.16360625 34.3099829 -63.75488281 31.24365234 C-62.34893196 30.2472815 -60.97680682 29.20325122 -59.6171875 28.14453125 C-58 27 -58 27 -56 27 C-55.67 25.68 -55.34 24.36 -55 23 C-54.01 23 -53.02 23 -52 23 C-51.505 21.515 -51.505 21.515 -51 20 C-50.01 20 -49.02 20 -48 20 C-47.75908465 27.2274605 -48.65504172 33.90294338 -50 41 C-47.69 40.67 -45.38 40.34 -43 40 C-42.67128906 38.96359375 -42.34257813 37.9271875 -42.00390625 36.859375 C-38.3556937 26.17017772 -38.3556937 26.17017772 -34.7734375 23.078125 C-31.27370025 21.46286165 -28.78736532 20.93572528 -24.9375 21.25 C-24.298125 21.4975 -23.65875 21.745 -23 22 C-23.0928125 22.64066406 -23.185625 23.28132813 -23.28125 23.94140625 C-23.62017194 28.00241739 -23.81997552 30.84684708 -21.39453125 34.2578125 C-19.29875914 36.20023543 -17.57743845 37.75401318 -15 39 C-10.86011595 38.77149991 -7.75003903 36.95484138 -4.1875 34.9375 C-3.21167969 34.38964844 -2.23585938 33.84179688 -1.23046875 33.27734375 C-0.12638672 32.64505859 -0.12638672 32.64505859 1 32 C1.37053279 23.49146926 1.34545843 14.98504482 -2 7 C-4.90245185 5.64663021 -4.90245185 5.64663021 -7.15625 7.03125 C-8.31640625 7.75828125 -8.31640625 7.75828125 -9.5 8.5 C-11.84375 9.96875 -11.84375 9.96875 -14 11 C-14.99 10.67 -15.98 10.34 -17 10 C-17.66 10 -18.32 10 -19 10 C-19.99 9.01 -19.99 9.01 -21 8 C-18.26070622 6.45925893 -15.50712161 4.94607142 -12.75 3.4375 C-11.97269531 2.99986328 -11.19539063 2.56222656 -10.39453125 2.11132812 C-9.64042969 1.70205078 -8.88632813 1.29277344 -8.109375 0.87109375 C-7.41811523 0.48880615 -6.72685547 0.10651855 -6.01464844 -0.28735352 C-3.53234684 -1.16542409 -2.40578941 -1.03594826 0 0 Z " fill="#EFEFEF" transform="translate(119,98)"/>
<path d="M0 0 C1 1 1 1 1.09765625 2.84765625 C1.06510417 4.8984375 1.03255208 6.94921875 1 9 C0.2575 8.9175 -0.485 8.835 -1.25 8.75 C-4.05711125 8.75734856 -4.05711125 8.75734856 -6.01171875 10.55078125 C-8.4921884 13.60629102 -9.50470597 16.7155831 -10.5625 20.4375 C-10.77302002 21.1505127 -10.98354004 21.86352539 -11.20043945 22.59814453 C-11.81913071 24.72731713 -12.41414653 26.86158371 -13 29 C-13.30164063 30.09183594 -13.60328125 31.18367188 -13.9140625 32.30859375 C-15.52338117 38.68897332 -16.51633402 45.10124061 -17.3125 51.625 C-17.41328857 52.40794434 -17.51407715 53.19088867 -17.61791992 53.99755859 C-18.17651577 58.77383714 -18.17651577 58.77383714 -16 63 C-16.495 64.98 -16.495 64.98 -17 67 C-21.29 66.34 -25.58 65.68 -30 65 C-32.20435091 58.38694727 -31.90152428 55.67127968 -31 49 C-34.3 49.99 -37.6 50.98 -41 52 C-41.3403125 54.3821875 -41.3403125 54.3821875 -41.6875 56.8125 C-42.18012936 60.26090553 -42.46836472 61.56296175 -45.1953125 63.8046875 C-48.4059245 65.17299846 -50.7086787 65.36867972 -54.1875 65.3125 C-55.23292969 65.30863281 -56.27835938 65.30476563 -57.35546875 65.30078125 C-60 65 -60 65 -62 63 C-62 61.68 -62 60.36 -62 59 C-62.95261719 59.3609375 -63.90523437 59.721875 -64.88671875 60.09375 C-66.15348884 60.56292411 -67.4204248 61.03165052 -68.6875 61.5 C-69.31333984 61.73847656 -69.93917969 61.97695312 -70.58398438 62.22265625 C-74.92285392 63.81281786 -78.54025675 64.84553674 -83 63.3125 C-85.19078847 62.75140687 -85.19078847 62.75140687 -87.5 64.5 C-90 66 -90 66 -92 65.9375 C-95.53952636 64.27834702 -98.25671519 61.74328481 -101 59 C-100.26523438 58.40832031 -100.26523438 58.40832031 -99.515625 57.8046875 C-97.53819923 55.45012382 -97.65771807 54.16107558 -97.75 51.125 C-97.76546875 50.28195313 -97.7809375 49.43890625 -97.796875 48.5703125 C-98.00152384 45.98071759 -98.43693228 43.53380474 -99 41 C-98.27296875 40.47043701 -98.27296875 40.47043701 -97.53125 39.93017578 C-95.34922012 38.33509096 -93.17458105 36.73022284 -91 35.125 C-89.8553125 34.29162109 -89.8553125 34.29162109 -88.6875 33.44140625 C-87.965625 32.90644531 -87.24375 32.37148438 -86.5 31.8203125 C-85.8296875 31.32805176 -85.159375 30.83579102 -84.46875 30.32861328 C-83.9840625 29.8901709 -83.499375 29.45172852 -83 29 C-83 28.34 -83 27.68 -83 27 C-82.875 24.625 -82.875 24.625 -82 22 C-78.9375 19.6875 -78.9375 19.6875 -76 18 C-71.95579349 19.77945087 -68.53921513 22.39529673 -65 25 C-64.505 24.505 -64.505 24.505 -64 24 C-61.40846893 23.84003834 -58.8404798 23.74061303 -56.24609375 23.68359375 C-55.47064713 23.66281265 -54.6952005 23.64203156 -53.89625549 23.62062073 C-51.41009692 23.55504198 -48.92382955 23.49620201 -46.4375 23.4375 C-44.75584796 23.39432267 -43.07420706 23.35070864 -41.39257812 23.30664062 C-37.26183129 23.19935221 -33.13097464 23.09810868 -29 23 C-28.94448975 22.413396 -28.88897949 21.82679199 -28.83178711 21.22241211 C-28.39002242 16.87207751 -27.8577122 12.75684003 -26.5625 8.5625 C-26.31628906 7.73878906 -26.07007813 6.91507813 -25.81640625 6.06640625 C-25 4 -25 4 -23 2 C-21.19995117 1.58935547 -21.19995117 1.58935547 -19.04296875 1.3671875 C-18.25986328 1.28339844 -17.47675781 1.19960938 -16.66992188 1.11328125 C-15.85072266 1.03464844 -15.03152344 0.95601562 -14.1875 0.875 C-12.97610352 0.74544922 -12.97610352 0.74544922 -11.74023438 0.61328125 C-3.68981621 -0.21747443 -3.68981621 -0.21747443 0 0 Z " fill="#EEEEEE" transform="translate(216,27)"/>
<path d="M0 0 C0.91644287 0.00523682 1.83288574 0.01047363 2.77709961 0.01586914 C3.76645508 0.0190918 4.75581055 0.02231445 5.77514648 0.02563477 C6.81606445 0.03401367 7.85698242 0.04239258 8.92944336 0.05102539 C10.49662109 0.05779297 10.49662109 0.05779297 12.09545898 0.06469727 C14.6859779 0.07652612 17.27646758 0.0944622 19.86694336 0.11352539 C20.19694336 3.41352539 20.52694336 6.71352539 20.86694336 10.11352539 C21.60630127 10.10828857 22.34565918 10.10305176 23.10742188 10.09765625 C53.62587156 9.91010607 53.62587156 9.91010607 62.86694336 11.11352539 C63.86694336 12.11352539 63.86694336 12.11352539 63.92944336 15.17602539 C63.90881836 16.14540039 63.88819336 17.11477539 63.86694336 18.11352539 C65.51694336 18.44352539 67.16694336 18.77352539 68.86694336 19.11352539 C69.40298155 20.50359054 69.92011809 21.90095188 70.42944336 23.30102539 C70.71948242 24.07833008 71.00952148 24.85563477 71.30834961 25.65649414 C72.00792853 28.73366298 72.11826385 30.18450855 70.86694336 33.11352539 C68.36896753 34.80341931 66.11303035 36.12016173 63.42944336 37.42602539 C62.38820313 37.96453125 62.38820313 37.96453125 61.32592773 38.51391602 C56.21088681 41.11352539 56.21088681 41.11352539 53.86694336 41.11352539 C54.02291992 41.93336914 54.17889648 42.75321289 54.33959961 43.59790039 C54.53424805 44.67555664 54.72889648 45.75321289 54.92944336 46.86352539 C55.2252832 48.46454102 55.2252832 48.46454102 55.52709961 50.09790039 C55.83851273 52.86124444 55.76608496 54.52299156 54.86694336 57.11352539 C49.16738763 58.95633787 43.44829422 57.06750288 37.99194336 55.05102539 C33.01145544 50.50999228 31.50747007 43.58953726 30.35913086 37.15649414 C29.82243236 34.9287694 28.95863096 33.12096747 27.86694336 31.11352539 C26.54694336 31.11352539 25.22694336 31.11352539 23.86694336 31.11352539 C24.01131836 32.39227539 24.15569336 33.67102539 24.30444336 34.98852539 C24.38049805 35.8096582 24.45655273 36.63079102 24.53491211 37.47680664 C24.80797748 40.12056106 24.80797748 40.12056106 25.54272461 42.65649414 C26.17963052 45.45108132 26.46980083 47.29867959 25.86694336 50.11352539 C22.6264991 53.49359382 18.88418854 55.75108039 14.86694336 58.11352539 C13.63204641 58.93834335 12.40126753 59.76946328 11.17944336 60.61352539 C10.41631836 61.10852539 9.65319336 61.60352539 8.86694336 62.11352539 C4.29698245 60.05653634 0.89835863 57.09767118 -2.13305664 53.11352539 C-2.39943843 49.47297424 -1.2332539 48.24319244 0.99194336 45.36352539 C4.87963995 38.6248513 1.2252955 30.09588021 -0.67211914 22.96166992 C-2.22434278 17.08725638 -3.27911888 11.32551373 -3.25805664 5.23852539 C-3.26063477 4.47797852 -3.26321289 3.71743164 -3.26586914 2.93383789 C-3.07059487 0.25743176 -2.67551453 0.14239605 0 0 Z " fill="#EDEDED" transform="translate(218.133056640625,94.886474609375)"/>
<path d="M0 0 C12.71734344 1.74720681 25.37635738 3.66719055 38 6 C35.4365412 10.60773606 32.24090518 13.99852102 28.546875 17.71875 C26.72339487 19.90753989 26.72339487 19.90753989 27.1640625 22.6484375 C27.89666617 25.08968255 27.89666617 25.08968255 29.625 27.125 C30.07875 27.74375 30.5325 28.3625 31 29 C29.84672122 32.45983634 29.01711492 32.99369075 26.1328125 35.07421875 C25.33439941 35.6561499 24.53598633 36.23808105 23.71337891 36.83764648 C22.85921387 37.44809814 22.00504883 38.0585498 21.125 38.6875 C19.38528103 39.94252034 17.64569704 41.1977278 15.90625 42.453125 C15.06191406 43.05962891 14.21757813 43.66613281 13.34765625 44.29101562 C11.35829883 45.73917515 9.40490347 47.21641219 7.46875 48.734375 C6.5303125 49.46140625 5.591875 50.1884375 4.625 50.9375 C3.83351563 51.56527344 3.04203125 52.19304687 2.2265625 52.83984375 C-0.72429061 54.37739353 -1.82992273 53.92533982 -5 53 C-7.89453125 51.37109375 -7.89453125 51.37109375 -10.8125 49.4375 C-12.27623047 48.47650391 -12.27623047 48.47650391 -13.76953125 47.49609375 C-14.50558594 47.00238281 -15.24164063 46.50867188 -16 46 C-14.47515506 41.78060255 -12.94508025 37.56315031 -11.41015625 33.34741211 C-10.888861 31.91336389 -10.36899183 30.47879642 -9.85058594 29.04370117 C-9.10466936 26.97956995 -8.35362364 24.91736789 -7.6015625 22.85546875 C-7.3712735 22.21473923 -7.1409845 21.5740097 -6.90371704 20.91386414 C-5.82786647 17.97881992 -4.74679334 15.62019002 -3 13 C0.125 12.8125 0.125 12.8125 3 13 C3 12.01 3 11.02 3 10 C0.69 10.33 -1.62 10.66 -4 11 C-3.52269162 9.5410574 -3.04308958 8.08286504 -2.5625 6.625 C-2.29566406 5.81289062 -2.02882813 5.00078125 -1.75390625 4.1640625 C-1 2 -1 2 0 0 Z " fill="#080808" transform="translate(31,94)"/>
<path d="M0 0 C0.721875 0.309375 1.44375 0.61875 2.1875 0.9375 C4.81693055 1.93084043 7.21919412 2.61377696 10 3 C10.33 2.67 10.66 2.34 11 2 C14.00331018 1.85806663 16.99217134 1.95763622 20 2 C20 4.97 20 7.94 20 11 C22.57644287 8.42355713 23.68769359 6.96726521 25.1875 3.8125 C25.53167969 3.09707031 25.87585938 2.38164063 26.23046875 1.64453125 C26.61138672 0.83048828 26.61138672 0.83048828 27 0 C30.49529294 1.11213866 33.74469192 2.31573191 37 4 C37.04898438 5.19238281 37.09796875 6.38476562 37.1484375 7.61328125 C37.22347604 9.17971068 37.2990234 10.74611579 37.375 12.3125 C37.4059375 13.09818359 37.436875 13.88386719 37.46875 14.69335938 C37.50742188 15.45068359 37.54609375 16.20800781 37.5859375 16.98828125 C37.63306885 18.03302612 37.63306885 18.03302612 37.68115234 19.09887695 C37.92118253 21.32532739 37.92118253 21.32532739 40 24 C39.9375 27.0625 39.9375 27.0625 39 30 C36.11058309 31.67282031 34.3408643 32 31 32 C30.66223316 30.2508503 30.32996329 28.50063855 30 26.75 C29.814375 25.77546875 29.62875 24.8009375 29.4375 23.796875 C29 21 29 21 29 17 C28.01 17 27.02 17 26 17 C25.82984375 17.70125 25.6596875 18.4025 25.484375 19.125 C23.92731138 25.22073842 22.01993679 30.48080518 19 36 C16.625 35.75 16.625 35.75 14 35 C11.43761787 31.46567983 11.63918357 27.44781537 11.5 23.25 C11.2398834 17.59518018 10.69238076 12.41561845 9 7 C4.62187466 12.60554679 0.77976441 18.40210503 -2.875 24.5 C-3.37257812 25.32242188 -3.87015625 26.14484375 -4.3828125 26.9921875 C-5.59233252 28.99254753 -6.79797632 30.99512975 -8 33 C-9.65 32.67 -11.3 32.34 -13 32 C-13.66 28.37 -14.32 24.74 -15 21 C-18.21880117 24.7935871 -20.6163187 28.65829477 -23 33 C-24.98 32.34 -26.96 31.68 -29 31 C-29.10957031 29.75863281 -29.21914062 28.51726562 -29.33203125 27.23828125 C-29.49153887 25.59629103 -29.6517312 23.95436722 -29.8125 22.3125 C-29.88275391 21.49587891 -29.95300781 20.67925781 -30.02539062 19.83789062 C-30.50576209 15.09182052 -31.27750601 12.02455634 -34 8 C-34.1875 4.6875 -34.1875 4.6875 -34 2 C-32.18818595 1.80598367 -30.37551468 1.61995625 -28.5625 1.4375 C-27.04849609 1.28087891 -27.04849609 1.28087891 -25.50390625 1.12109375 C-24.67761719 1.08113281 -23.85132813 1.04117188 -23 1 C-22 2 -22 2 -21.90234375 4.28515625 C-21.91394531 5.20167969 -21.92554688 6.11820312 -21.9375 7.0625 C-21.94652344 7.98160156 -21.95554688 8.90070313 -21.96484375 9.84765625 C-21.97644531 10.55792969 -21.98804688 11.26820312 -22 12 C-21.01 12 -20.02 12 -19 12 C-18.01 8.37 -17.02 4.74 -16 1 C-13.66705225 0.95758277 -11.33297433 0.95907063 -9 1 C-8 2 -8 2 -7.90234375 4.06640625 C-7.91394531 4.89011719 -7.92554688 5.71382813 -7.9375 6.5625 C-7.94652344 7.38878906 -7.95554688 8.21507813 -7.96484375 9.06640625 C-7.97644531 9.70449219 -7.98804688 10.34257813 -8 11 C-4.32966073 7.72291137 -2.30718811 4.28477792 0 0 Z " fill="#0A0A0A" transform="translate(158,105)"/>
<path d="M0 0 C2.02734375 1.6015625 2.02734375 1.6015625 3.9375 3.625 C4.61683594 4.34300781 5.29617187 5.06101562 5.99609375 5.80078125 C6.65738281 6.52652344 7.31867187 7.25226562 8 8 C8.60972656 8.65355469 9.21945313 9.30710937 9.84765625 9.98046875 C14 14.58436761 14 14.58436761 14 18 C12.25 19.60546875 12.25 19.60546875 10 21.1875 C9.2575 21.71730469 8.515 22.24710938 7.75 22.79296875 C7.1725 23.19128906 6.595 23.58960937 6 24 C2.95998479 22.64888213 1.00302782 21.1152647 -1.3125 18.75 C-3.05920354 17.1058737 -3.05920354 17.1058737 -5 16 C-8.71213859 16.4057628 -8.71213859 16.4057628 -12 18 C-13.32776768 18.35485473 -14.6602395 18.69351884 -16 19 C-15.79503906 19.73605469 -15.59007813 20.47210938 -15.37890625 21.23046875 C-15.10949219 22.20628906 -14.84007813 23.18210937 -14.5625 24.1875 C-14.29566406 25.15042969 -14.02882813 26.11335938 -13.75390625 27.10546875 C-13 30 -13 30 -12.58984375 32.73828125 C-12.17248877 35.36538657 -12.17248877 35.36538657 -9 37 C-5.50747821 36.58955406 -2.41337204 34.90620845 0.75 33.4375 C1.73484375 32.98246094 2.7196875 32.52742188 3.734375 32.05859375 C4.48203125 31.70925781 5.2296875 31.35992187 6 31 C8.31 32.98 10.62 34.96 13 37 C12 40 12 40 9.6550293 41.45800781 C6.33802498 43.06774982 3.02022836 44.67298757 -0.3125 46.25 C-1.46685547 46.8171875 -2.62121094 47.384375 -3.81054688 47.96875 C-4.92107422 48.49984375 -6.03160156 49.0309375 -7.17578125 49.578125 C-8.19583252 50.06700195 -9.21588379 50.55587891 -10.2668457 51.05957031 C-13.19132025 52.06582989 -14.21273613 52.22308002 -17 51 C-19.74967702 49.21261748 -22.19041426 47.05919131 -24.6875 44.9375 C-25.37650391 44.38900391 -26.06550781 43.84050781 -26.77539062 43.27539062 C-30.19461233 40.37392717 -31.80626582 38.74873498 -32.953125 34.31640625 C-33.00772692 32.8785557 -33.01885646 31.43876336 -33 30 C-33.01780518 29.07952881 -33.03561035 28.15905762 -33.05395508 27.21069336 C-33.09835685 24.13903332 -33.08748988 21.07183335 -33.0625 18 C-33.05573242 16.40865234 -33.05573242 16.40865234 -33.04882812 14.78515625 C-33.03713843 12.19004402 -33.02075276 9.59505291 -33 7 C-29.10813199 5.82782413 -25.21213115 4.67069949 -21.31176758 3.52709961 C-19.98666608 3.13631684 -18.66274591 2.74150412 -17.34008789 2.3425293 C-15.43434114 1.76844011 -13.52384066 1.21020735 -11.61328125 0.65234375 C-9.89298706 0.14175415 -9.89298706 0.14175415 -8.13793945 -0.37915039 C-4.94650399 -1.01058433 -3.07577379 -0.97742161 0 0 Z " fill="#060606" transform="translate(56,36)"/>
<path d="M0 0 C7.96188586 4.46642378 7.96188586 4.46642378 9.26953125 8.7578125 C9.58779785 11.66889098 9.44666544 14.10673468 9 17 C8.81244141 18.39412109 8.81244141 18.39412109 8.62109375 19.81640625 C7.4677129 22.67219426 6.27811423 24.02664131 3.62426758 25.59545898 C-0.96964581 27.47164694 -5.92963287 27.98583947 -10.8125 28.6875 C-11.93011719 28.86023438 -13.04773438 29.03296875 -14.19921875 29.2109375 C-16.94357656 29.63314639 -19.68925514 30.04152865 -22.4375 30.4375 C-22.4375 31.0975 -22.4375 31.7575 -22.4375 32.4375 C-14.5175 31.9425 -14.5175 31.9425 -6.4375 31.4375 C-5.9425 34.9025 -5.9425 34.9025 -5.4375 38.4375 C-12.75270767 40.22966952 -20.00916052 41.67809403 -27.5 42.4375 C-28.70785156 42.56125 -29.91570312 42.685 -31.16015625 42.8125 C-34.4375 42.4375 -34.4375 42.4375 -37.3125 40.1328125 C-40.53046055 36.05120812 -40.69369779 32.81501553 -40.14453125 27.71875 C-39.34349152 22.62495888 -38.51006088 18.67092373 -35.4375 14.4375 C-32.60595703 12.70825195 -32.60595703 12.70825195 -29.1953125 11.17578125 C-28.58992645 10.89905075 -27.98454041 10.62232025 -27.36080933 10.33720398 C-25.4340915 9.46061823 -23.49875508 8.6052798 -21.5625 7.75 C-20.26891921 7.16476241 -18.97594311 6.57818628 -17.68359375 5.99023438 C-14.27868527 4.44819018 -10.86646599 2.92551629 -7.4375 1.4375 C-6.5285498 1.03684326 -5.61959961 0.63618652 -4.68310547 0.22338867 C-2.4375 -0.5625 -2.4375 -0.5625 0 0 Z " fill="#070707" transform="translate(273.4375,44.5625)"/>
<path d="M0 0 C4.95 1.32 9.9 2.64 15 4 C15.33 15.22 15.66 26.44 16 38 C16.99 38 17.98 38 19 38 C19.27585937 37.28457031 19.55171875 36.56914063 19.8359375 35.83203125 C20.98248522 33.04261145 22.26227115 30.37709642 23.625 27.6875 C24.07101563 26.80449219 24.51703125 25.92148437 24.9765625 25.01171875 C25.48316406 24.01591797 25.48316406 24.01591797 26 23 C33.4718206 24.01888463 33.4718206 24.01888463 36 26 C36.52271844 28.72942187 36.83540265 31.18533544 37 33.9375 C37.1675868 36.72486286 37.48877151 39.23181389 38 42 C39.95513639 43.78508786 39.95513639 43.78508786 42 45 C42.25 48.6875 42.25 48.6875 42 52 C37.67435795 53.58255197 33.571279 54.45144652 29 55 C27.39147628 52.31912713 26.92943693 50.47959733 26.5 47.3125 C26.2525 45.6728125 26.2525 45.6728125 26 44 C25.34 43.67 24.68 43.34 24 43 C23.73960938 43.57363281 23.47921875 44.14726563 23.2109375 44.73828125 C21.90661413 47.1744207 20.42471842 49.09306786 18.625 51.1875 C18.03976563 51.88230469 17.45453125 52.57710937 16.8515625 53.29296875 C14.7693086 55.21268384 13.76992979 55.609014 11 56 C8.859375 55.44140625 8.859375 55.44140625 6.75 54.5625 C5.69039063 54.13130859 5.69039063 54.13130859 4.609375 53.69140625 C4.07828125 53.46324219 3.5471875 53.23507813 3 53 C2.98018066 52.11328613 2.96036133 51.22657227 2.93994141 50.31298828 C2.86115753 46.97664336 2.77444756 43.64068935 2.68261719 40.3046875 C2.64468107 38.86954487 2.60977138 37.43431854 2.578125 35.99902344 C2.41196225 28.55285516 2.14711959 21.33543 0.46777344 14.04296875 C-0.14740887 11.35620176 -0.4467185 8.68083015 -0.6875 5.9375 C-0.77386719 5.01839844 -0.86023438 4.09929688 -0.94921875 3.15234375 C-0.96597656 2.44207031 -0.98273438 1.73179688 -1 1 C-0.67 0.67 -0.34 0.34 0 0 Z " fill="#070707" transform="translate(73,29)"/>
<path d="M0 0 C4.33593724 4.06368071 4.58313909 11.63708783 4.86328125 17.2578125 C4.86668967 20.36969644 4.815066 23.46552729 4.6796875 26.57421875 C2.46014099 27.94679352 0.23133341 29.29681026 -2.0078125 30.63671875 C-2.94657227 31.22163086 -2.94657227 31.22163086 -3.90429688 31.81835938 C-6.7124874 33.47974958 -8.73100492 34.58948139 -12.03515625 34.50390625 C-16.15091519 32.82946073 -19.0232065 30.39136819 -21.3203125 26.57421875 C-21.60970131 23.08124503 -21.13362863 19.97100964 -20.3203125 16.57421875 C-24.44265653 17.04987383 -27.66964889 17.6185061 -31.3203125 19.57421875 C-32.3103125 19.57421875 -33.3003125 19.57421875 -34.3203125 19.57421875 C-34.50207031 20.22648437 -34.68382813 20.87875 -34.87109375 21.55078125 C-36.29497846 26.50151886 -37.81438484 31.03968298 -40.3203125 35.57421875 C-42.6303125 35.57421875 -44.9403125 35.57421875 -47.3203125 35.57421875 C-47.1759375 34.43984375 -47.0315625 33.30546875 -46.8828125 32.13671875 C-46.69505916 30.61591667 -46.50757347 29.09508153 -46.3203125 27.57421875 C-46.22492188 26.83042969 -46.12953125 26.08664063 -46.03125 25.3203125 C-45.42832289 20.36769698 -44.97039072 15.56060418 -45.3203125 10.57421875 C-46.3103125 9.91421875 -47.3003125 9.25421875 -48.3203125 8.57421875 C-46.4453125 3.69921875 -46.4453125 3.69921875 -45.3203125 2.57421875 C-43.68558368 2.48721533 -42.04717195 2.46720812 -40.41015625 2.4765625 C-39.42080078 2.47978516 -38.43144531 2.48300781 -37.41210938 2.48632812 C-36.37119141 2.49470703 -35.33027344 2.50308594 -34.2578125 2.51171875 C-32.69063477 2.51848633 -32.69063477 2.51848633 -31.09179688 2.52539062 C-28.5012459 2.53721962 -25.91080691 2.55370186 -23.3203125 2.57421875 C-22.9903125 4.22421875 -22.6603125 5.87421875 -22.3203125 7.57421875 C-16.0897778 8.20298831 -12.32603424 5.50313174 -7.35546875 2.2421875 C-2.89021047 -0.53035849 -2.89021047 -0.53035849 0 0 Z " fill="#090909" transform="translate(116.3203125,103.42578125)"/>
<path d="M0 0 C11.55 0 23.1 0 35 0 C35.66 1.98 36.32 3.96 37 6 C38.32 6.33 39.64 6.66 41 7 C41.66 9.64 42.32 12.28 43 15 C41.58671871 15.81837442 40.16921654 16.62946219 38.75 17.4375 C37.96109375 17.88996094 37.1721875 18.34242188 36.359375 18.80859375 C34 20 34 20 30 21 C29.34 18.36 28.68 15.72 28 13 C27.34 13 26.68 13 26 13 C25.86394518 21.39004715 26.24524649 29.64380043 27 38 C25.3733152 37.71788123 23.74867104 37.42397625 22.125 37.125 C21.22007812 36.96257812 20.31515625 36.80015625 19.3828125 36.6328125 C17 36 17 36 15 34 C14.32983398 31.98461914 14.32983398 31.98461914 13.74609375 29.53515625 C13.53146484 28.65279297 13.31683594 27.77042969 13.09570312 26.86132812 C12.87849609 25.93771484 12.66128906 25.01410156 12.4375 24.0625 C11.99959672 22.24066914 11.56083101 20.41904531 11.12109375 18.59765625 C10.9295874 17.78820557 10.73808105 16.97875488 10.54077148 16.14477539 C10.10310307 14.4089212 9.56610453 12.69831359 9 11 C7.88625 10.9175 6.7725 10.835 5.625 10.75 C2 10 2 10 0.5625 8.3125 C0 6 0 6 0 0 Z " fill="#080808" transform="translate(242,110)"/>
<path d="M0 0 C1.50433594 0.01353516 1.50433594 0.01353516 3.0390625 0.02734375 C3.80992187 0.03894531 4.58078125 0.05054688 5.375 0.0625 C5.045 1.7125 4.715 3.3625 4.375 5.0625 C-0.91935341 6.63954144 -6.22408226 7.89922541 -11.625 9.0625 C-12.285 12.3625 -12.945 15.6625 -13.625 19.0625 C-12.965 19.0625 -12.305 19.0625 -11.625 19.0625 C-11.955 20.0525 -12.285 21.0425 -12.625 22.0625 C-13.285 22.0625 -13.945 22.0625 -14.625 22.0625 C-14.955 32.6225 -15.285 43.1825 -15.625 54.0625 C-11.17 53.5675 -11.17 53.5675 -6.625 53.0625 C-6.955 54.7125 -7.285 56.3625 -7.625 58.0625 C-12.245 58.3925 -16.865 58.7225 -21.625 59.0625 C-22.39671442 55.20392789 -22.88744042 51.65077458 -23.1875 47.75 C-23.27128906 46.68136719 -23.35507813 45.61273438 -23.44140625 44.51171875 C-23.50199219 43.70347656 -23.56257812 42.89523438 -23.625 42.0625 C-23.74617187 43.19429687 -23.86734375 44.32609375 -23.9921875 45.4921875 C-24.16100276 46.97401031 -24.33029855 48.45577842 -24.5 49.9375 C-24.57863281 50.68386719 -24.65726563 51.43023437 -24.73828125 52.19921875 C-25.3984375 57.8359375 -25.3984375 57.8359375 -27.625 60.0625 C-27.934375 59.27875 -28.24375 58.495 -28.5625 57.6875 C-29.55375038 55.13919872 -29.55375038 55.13919872 -30.625 53.0625 C-30.13626352 43.60195808 -28.41061134 34.33276957 -26.25 25.125 C-26.05325684 24.27446045 -25.85651367 23.4239209 -25.65380859 22.54760742 C-24.20285482 16.61759736 -22.60967573 10.42150357 -19.625 5.0625 C-18.635 4.7325 -17.645 4.4025 -16.625 4.0625 C-16.295 3.4025 -15.965 2.7425 -15.625 2.0625 C-13.60011372 1.77323053 -11.57255984 1.48977846 -9.53515625 1.30859375 C-6.11244891 0.86763145 -3.6473365 -0.04241089 0 0 Z " fill="#F4F4F4" transform="translate(227.625,32.9375)"/>
<path d="M0 0 C3.36720387 1.39332574 4.9859524 2.9789286 7 6 C3.87072688 10.25581144 0.29722607 13.9199685 -4 17 C-4.66 17 -5.32 17 -6 17 C-7.57273568 19.8424854 -7.57273568 19.8424854 -8 23 C-7.32453125 22.37351562 -6.6490625 21.74703125 -5.953125 21.1015625 C-5.06109375 20.28429687 -4.1690625 19.46703125 -3.25 18.625 C-2.36828125 17.81289062 -1.4865625 17.00078125 -0.578125 16.1640625 C1.59802521 14.3374152 3.40820119 13.10212006 6 12 C8 13 8 13 10 15 C10.06420382 17.02242032 10.11882303 19.04992077 10.0078125 21.0703125 C9.99803258 23.48595374 10.7827868 24.94595272 12 27 C12 27.99 12 28.98 12 30 C8.04 31.32 4.08 32.64 0 34 C-0.66 33.01 -1.32 32.02 -2 31 C-5.26389274 32.01025252 -8.08547059 33.04884034 -11.0625 34.75 C-14 36 -14 36 -16.75 35.375 C-19 34 -19 34 -21 31 C-21.44941255 28.61700383 -21.81606943 26.21774516 -22.125 23.8125 C-22.29257813 22.54019531 -22.46015625 21.26789063 -22.6328125 19.95703125 C-22.75398438 18.98121094 -22.87515625 18.00539063 -23 17 C-20.48020165 15.10278804 -17.95896967 13.20748998 -15.4375 11.3125 C-14.73302734 10.78205078 -14.02855469 10.25160156 -13.30273438 9.70507812 C-8.91145123 6.40655668 -4.48186822 3.17441126 0 0 Z " fill="#080808" transform="translate(140,51)"/>
<path d="M0 0 C4.62 0 9.24 0 14 0 C14.26554688 2.0728125 14.53109375 4.145625 14.8046875 6.28125 C15.06836854 8.31362592 15.33366917 10.3457844 15.59912109 12.37792969 C15.78114989 13.77810161 15.96152417 15.17848975 16.14013672 16.57910156 C17.06560464 23.82773854 18.01000029 30.95455423 20 38 C20.8125 41.5 20.8125 41.5 20 45 C16.67242656 48.23217926 13.14884763 50.91398723 9 53 C5.58606163 52.71750862 3.61445685 51.14758956 1 49 C2.07134965 45.87523019 2.8080357 44.1712114 5.3125 41.9375 C7.370614 38.35485712 6.98508175 37.58568448 6 33.6875 C5.34809576 31.45397155 4.67991087 29.22516284 4 27 C1.4091775 17.9011963 -0.53091714 9.55650855 0 0 Z " fill="#090909" transform="translate(220,98)"/>
<path d="M0 0 C2.48231851 1.68629107 4.59571839 3.66833463 6.75 5.75 C7.33910156 6.28882813 7.92820312 6.82765625 8.53515625 7.3828125 C13.41751918 11.98457986 13.41751918 11.98457986 14 16 C12.2023484 29.33376226 12.2023484 29.33376226 8.08984375 34.3125 C6.10592669 35.79580248 4.23624093 36.94302675 2 38 C1.2575 38.37382813 0.515 38.74765625 -0.25 39.1328125 C-0.8275 39.41898438 -1.405 39.70515625 -2 40 C-1.505 43.465 -1.505 43.465 -1 47 C-6.44583538 50.74401182 -12.39159962 52.41302502 -19 52 C-19.66 50.35 -20.32 48.7 -21 47 C-19.4176994 46.66179834 -17.83410625 46.32964061 -16.25 46 C-14.92742187 45.7215625 -14.92742187 45.7215625 -13.578125 45.4375 C-11 45 -11 45 -7 45 C-7.33 42.69 -7.66 40.38 -8 38 C-8.65226562 38.144375 -9.30453125 38.28875 -9.9765625 38.4375 C-14.72620177 39.44627294 -19.11409188 40.25715306 -24 40 C-24 38.68 -24 37.36 -24 36 C-23.29915283 35.89453857 -22.59830566 35.78907715 -21.8762207 35.68041992 C-18.68648993 35.19397608 -15.499594 34.69091806 -12.3125 34.1875 C-11.20970703 34.02185547 -10.10691406 33.85621094 -8.97070312 33.68554688 C-7.90400391 33.51474609 -6.83730469 33.34394531 -5.73828125 33.16796875 C-4.75899658 33.01610107 -3.77971191 32.8642334 -2.77075195 32.70776367 C0.30069586 31.92318995 2.44363908 30.86825137 5 29 C6.14907635 26.01437625 6.14907635 26.01437625 6.5 22.625 C6.6753125 21.50351562 6.850625 20.38203125 7.03125 19.2265625 C6.99504001 15.48788114 6.23072653 13.95031574 4 11 C1.48134876 8.32085559 1.48134876 8.32085559 -2 7 C-9.12566451 8.23312893 -16.05894628 12.1702987 -22.5625 15.1875 C-23.57119141 15.65091797 -24.57988281 16.11433594 -25.61914062 16.59179688 C-28.0813725 17.72372338 -30.54156694 18.8598525 -33 20 C-33 19.01 -33 18.02 -33 17 C-34.43750191 15.31201173 -34.43750191 15.31201173 -36 14 C-32.3749251 12.30915234 -28.74320487 10.63334059 -25.10644531 8.96777344 C-23.63554483 8.29199116 -22.16626741 7.61266984 -20.69824219 6.93066406 C-18.30297245 5.8195169 -15.90207191 4.72135289 -13.5 3.625 C-12.35265381 3.08842773 -12.35265381 3.08842773 -11.18212891 2.54101562 C-3.61277219 -0.88548338 -3.61277219 -0.88548338 0 0 Z " fill="#EDEDED" transform="translate(275,38)"/>
<path d="M0 0 C9.24 0 18.48 0 28 0 C29.93395001 3.86790003 30.23289353 5.1500459 30.125 9.25 C30.10695312 10.14203125 30.08890625 11.0340625 30.0703125 11.953125 C30.04710937 12.62859375 30.02390625 13.3040625 30 14 C28.23413239 14.5576424 26.46204744 15.09562787 24.6875 15.625 C23.20830078 16.07746094 23.20830078 16.07746094 21.69921875 16.5390625 C19 17 19 17 16 15 C15.58427734 16.60681641 15.58427734 16.60681641 15.16015625 18.24609375 C14.79445076 19.64327627 14.42855554 21.04040915 14.0625 22.4375 C13.88009766 23.14455078 13.69769531 23.85160156 13.50976562 24.58007812 C12.11328125 29.88671875 12.11328125 29.88671875 11 31 C8.66702567 31.04092937 6.33294775 31.04241723 4 31 C4 28.57410553 4.01827906 26.14799262 4.0703125 23.72265625 C4.08835938 22.51480469 4.10640625 21.30695313 4.125 20.0625 C4.14820313 18.85722656 4.17140625 17.65195313 4.1953125 16.41015625 C3.93851606 11.92649042 2.71526557 9.11263533 0.3125 5.375 C-0.120625 4.59125 -0.55375 3.8075 -1 3 C-0.67 2.01 -0.34 1.02 0 0 Z " fill="#070707" transform="translate(156,56)"/>
<path d="M0 0 C-0.37511719 0.83917969 -0.75023437 1.67835937 -1.13671875 2.54296875 C-7.59549639 17.72190965 -11.10941172 33.42241302 -12.640625 49.82421875 C-13 53 -13 53 -14 55 C-16.31 55 -18.62 55 -21 55 C-21.22254838 37.1219465 -19.87099084 19.50182027 -16 2 C-10.51324804 0.13216954 -5.77807024 -0.2358396 0 0 Z " fill="#090909" transform="translate(211,33)"/>
<path d="M0 0 C3.17430521 2.23059285 5.661727 4.78928935 8.3125 7.625 C11.68753669 6.4391763 13.95972731 5.34926311 16.3125 2.625 C18.3125 3.625 18.3125 3.625 18.93359375 5.359375 C19.35956889 7.90644284 19.40896629 10.29356169 19.375 12.875 C19.36597656 13.76703125 19.35695313 14.6590625 19.34765625 15.578125 C19.33605469 16.25359375 19.32445313 16.9290625 19.3125 17.625 C12.6875 18.875 12.6875 18.875 9.3125 16.625 C8.56484375 17.06972656 7.8171875 17.51445313 7.046875 17.97265625 C5.56960937 18.82150391 5.56960937 18.82150391 4.0625 19.6875 C3.08796875 20.25597656 2.1134375 20.82445313 1.109375 21.41015625 C-1.6875 22.625 -1.6875 22.625 -3.9140625 22.3984375 C-6.69521051 21.18551392 -7.86828522 20.1112602 -9.6875 17.625 C-11.07184996 12.95087458 -11.6875 8.49554397 -11.6875 3.625 C-3.8049772 -0.53092705 -3.8049772 -0.53092705 0 0 Z " fill="#E8E8E8" transform="translate(51.6875,51.375)"/>
<path d="M0 0 C6.98240471 1.37358781 13.34469887 3.47267046 20 6 C20.66 11.61 21.32 17.22 22 23 C23.32 22.67 24.64 22.34 26 22 C28.53111195 22.98351778 30.79638452 24.00182304 33.1875 25.25 C33.82880859 25.56324219 34.47011719 25.87648438 35.13085938 26.19921875 C39.8705324 28.61159721 39.8705324 28.61159721 41 32 C41.12781786 34.67394964 41.04391871 37.32095857 41 40 C40.505 38.02 40.505 38.02 40 36 C39.34 36 38.68 36 38 36 C37.34 37.32 36.68 38.64 36 40 C36 37.03 36 34.06 36 31 C32.38026598 29.68373308 29.90432869 29 26 29 C23.69 33.62 21.38 38.24 19 43 C18.01 43 17.02 43 16 43 C15.04622816 38.99679847 14.8842384 35.27788253 14.90234375 31.16796875 C14.90556641 29.87568359 14.90878906 28.58339844 14.91210938 27.25195312 C14.92046335 25.89713474 14.92892828 24.54231703 14.9375 23.1875 C14.94252 21.81315265 14.94708203 20.43880355 14.95117188 19.06445312 C14.96294332 15.70959076 14.97938717 12.35481779 15 9 C13.12828125 8.78537109 13.12828125 8.78537109 11.21875 8.56640625 C7.61390978 8.15304131 4.40860389 7.27822646 1 6 C0.67 4.02 0.34 2.04 0 0 Z " fill="#EAEAEA" transform="translate(73,24)"/>
<path d="M0 0 C-0.13921875 0.96099609 -0.13921875 0.96099609 -0.28125 1.94140625 C-0.62017194 6.00241739 -0.81997552 8.84684708 1.60546875 12.2578125 C3.70124086 14.20023543 5.42256155 15.75401318 8 17 C11.21789565 16.72459452 12.90574042 16.05699417 15.6875 14.375 C16.450625 13.92125 17.21375 13.4675 18 13 C18.66 13.33 19.32 13.66 20 14 C19.67 14.99 19.34 15.98 19 17 C19.66 17.33 20.32 17.66 21 18 C12.40152672 23.86259542 12.40152672 23.86259542 7.8125 24.3125 C3.65774325 22.37361352 1.04763506 19.3583163 -2 16 C-2.78375 15.278125 -3.5675 14.55625 -4.375 13.8125 C-6.14933387 11.8334353 -6.73689305 10.63106948 -7 8 C-6.67 7.34 -6.34 6.68 -6 6 C-7.97501947 6.13978974 -7.97501947 6.13978974 -10 7 C-11.03978385 9.07752563 -11.03978385 9.07752563 -11.5625 11.625 C-11.80355469 12.52476562 -12.04460937 13.42453125 -12.29296875 14.3515625 C-12.52628906 15.22554687 -12.75960937 16.09953125 -13 17 C-15.0200332 23.42207086 -15.0200332 23.42207086 -18.4375 25.4375 C-21 26 -21 26 -25 26 C-24.67 24.35 -24.34 22.7 -24 21 C-24.99 20.34 -25.98 19.68 -27 19 C-23.535 18.505 -23.535 18.505 -20 18 C-19.67128906 16.96359375 -19.34257813 15.9271875 -19.00390625 14.859375 C-15.3556937 4.17017772 -15.3556937 4.17017772 -11.7734375 1.078125 C-7.73893859 -0.78395142 -4.29562273 -1.6628217 0 0 Z " fill="#E9E9E9" transform="translate(96,120)"/>
<path d="M0 0 C-2.26363359 6.90515356 -4.69011651 13.73872703 -7.1875 20.5625 C-7.55552734 21.57119141 -7.92355469 22.57988281 -8.30273438 23.61914062 C-9.20071288 26.07983496 -10.09982162 28.54010977 -11 31 C-12.98 31 -14.96 31 -17 31 C-17.02902996 26.75001434 -17.04680887 22.50005419 -17.0625 18.25 C-17.07087891 17.0434375 -17.07925781 15.836875 -17.08789062 14.59375 C-17.09111328 13.43359375 -17.09433594 12.2734375 -17.09765625 11.078125 C-17.10289307 10.00981445 -17.10812988 8.94150391 -17.11352539 7.84082031 C-17.01503008 5.37610765 -16.71565464 3.34754533 -16 1 C-10.61186828 0.0828712 -5.45836365 -0.09016808 0 0 Z " fill="#0C0C0C" transform="translate(229,56)"/>
<path d="M0 0 C2.375 2.1875 2.375 2.1875 5 5 C6.79238146 6.58631591 8.61687157 8.12814706 10.44921875 9.66796875 C11.68048318 10.72555357 12.85228537 11.85228537 14 13 C13.34 13.33 12.68 13.66 12 14 C11.34786708 16.02463255 11.34786708 16.02463255 11 18 C10.34 17.34 9.68 16.68 9 16 C8.54367188 15.55398437 8.08734375 15.10796875 7.6171875 14.6484375 C6.41420729 13.42221129 5.25963753 12.1481185 4.1328125 10.8515625 C3.47023437 10.11679687 2.80765625 9.38203125 2.125 8.625 C1.20074219 7.56152344 1.20074219 7.56152344 0.2578125 6.4765625 C-2.4015742 4.73737881 -3.82954678 4.82407988 -6.89453125 5.45361328 C-12.29503312 6.8550886 -17.65002081 8.40173842 -22.99414062 10.00390625 C-28.15878279 11.4815383 -31.66045215 12.18286395 -37 11 C-37.99 11.66 -38.98 12.32 -40 13 C-40 11.68 -40 10.36 -40 9 C-31.49153702 5.8467601 -22.87120044 3.6837821 -14.03637695 1.66333008 C-13.15554443 1.46118896 -12.27471191 1.25904785 -11.3671875 1.05078125 C-10.57425293 0.87200439 -9.78131836 0.69322754 -8.96435547 0.5090332 C-3.10226447 -1.01003959 -3.10226447 -1.01003959 0 0 Z " fill="#F0F0F0" transform="translate(57,31)"/>
<path d="M0 0 C2 1 2 1 2.62109375 2.734375 C3.04706889 5.28144284 3.09646629 7.66856169 3.0625 10.25 C3.05347656 11.14203125 3.04445313 12.0340625 3.03515625 12.953125 C3.02355469 13.62859375 3.01195313 14.3040625 3 15 C-3.28767123 16.35616438 -3.28767123 16.35616438 -6.625 14.6875 C-7.800625 13.8521875 -7.800625 13.8521875 -9 13 C-11.52372901 11.63921965 -11.52372901 11.63921965 -14 11 C-14.99 11.66 -15.98 12.32 -17 13 C-17.99 13 -18.98 13 -20 13 C-20.66 9.7 -21.32 6.4 -22 3 C-18 3 -18 3 -16.25 4.5 C-15.8375 4.995 -15.425 5.49 -15 6 C-14.67 5.34 -14.34 4.68 -14 4 C-12.80375 4.268125 -11.6075 4.53625 -10.375 4.8125 C-7.75060729 5.16740008 -6.46492875 5.26067135 -4.1328125 3.953125 C-2.29537234 2.4314894 -2.29537234 2.4314894 0 0 Z " fill="#EFEFEF" transform="translate(68,54)"/>
<path d="M0 0 C-1.42929938 4.50779034 -3.11969005 8.61261012 -5 13 C-10.94 13.33 -16.88 13.66 -23 14 C-22.609375 6.3828125 -22.609375 6.3828125 -22 4 C-18.74505439 1.4154278 -14.45058114 1.34712719 -10.4375 0.875 C-9.42913086 0.74544922 -9.42913086 0.74544922 -8.40039062 0.61328125 C-5.57799664 0.26013165 -2.8471397 0 0 0 Z " fill="#0C0C0C" transform="translate(237,38)"/>
<path d="M0 0 C0.99 0 1.98 0 3 0 C3.25515919 7.52719602 2.28297723 14.58851545 1 22 C2.32 22.33 3.64 22.66 5 23 C5 23.99 5 24.98 5 26 C4.34 26 3.68 26 3 26 C2.67 26.99 2.34 27.98 2 29 C0.33388095 29.042721 -1.33382885 29.04063832 -3 29 C-4 28 -4 28 -4.09765625 24.40234375 C-4.0909822 22.91403133 -4.07902183 21.42573568 -4.0625 19.9375 C-4.05798828 19.17888672 -4.05347656 18.42027344 -4.04882812 17.63867188 C-4.0370068 15.75908129 -4.01907078 13.87953101 -4 12 C-4.66 11.67 -5.32 11.34 -6 11 C-5.125 5.25 -5.125 5.25 -4 3 C-3.01 3 -2.02 3 -1 3 C-0.67 2.01 -0.34 1.02 0 0 Z " fill="#F6F6F6" transform="translate(68,118)"/>
<path d="M0 0 C0.70125 0.144375 1.4025 0.28875 2.125 0.4375 C2.455 1.0975 2.785 1.7575 3.125 2.4375 C2.1875 4.5625 2.1875 4.5625 1.125 6.4375 C2.445 7.0975 3.765 7.7575 5.125 8.4375 C5.125 11.0775 5.125 13.7175 5.125 16.4375 C4.795 15.1175 4.465 13.7975 4.125 12.4375 C0.50318018 13.64477327 -1.17209344 15.03168688 -2.875 18.4375 C-3.535 18.7675 -4.195 19.0975 -4.875 19.4375 C-9.79286291 13.53266114 -9.79286291 13.53266114 -10.0625 9.9375 C-7.9028982 5.3909699 -5.21752934 0.79397186 0 0 Z M-1.875 1.4375 C-2.205 2.4275 -2.535 3.4175 -2.875 4.4375 C-2.215 4.4375 -1.555 4.4375 -0.875 4.4375 C-1.205 3.4475 -1.535 2.4575 -1.875 1.4375 Z " fill="#ECECEC" transform="translate(66.875,105.5625)"/>
<path d="M0 0 C0.78821819 2.29543427 1.13558044 3.58008982 0.37915039 5.92285156 C0.03875732 6.5722168 -0.30163574 7.22158203 -0.65234375 7.890625 C-1.01650391 8.59960938 -1.38066406 9.30859375 -1.75585938 10.0390625 C-2.14580078 10.76867188 -2.53574219 11.49828125 -2.9375 12.25 C-3.32357422 12.99507812 -3.70964844 13.74015625 -4.10742188 14.5078125 C-5.06090166 16.34414394 -6.02905677 18.17284207 -7 20 C-7.33 19.34 -7.66 18.68 -8 18 C-8.66 18 -9.32 18 -10 18 C-9.39301257 13.87248551 -7.96189209 10.6678852 -6 7 C-7.98 7.33 -9.96 7.66 -12 8 C-11.34 6.02 -10.68 4.04 -10 2 C-10.99 1.67 -11.98 1.34 -13 1 C-8.59085217 -0.10228696 -4.51617599 -0.07654536 0 0 Z " fill="#E8E8E8" transform="translate(243,31)"/>
<path d="M0 0 C-0.99 0.33 -1.98 0.66 -3 1 C-3.73323796 3.01508358 -3.73323796 3.01508358 -4 5 C-6.87108918 5.86975343 -9.74562533 6.72100833 -12.625 7.5625 C-13.43324219 7.80935547 -14.24148437 8.05621094 -15.07421875 8.31054688 C-19.87186191 9.6952325 -23.03093474 10.00724296 -28 9 C-28.99 9.66 -29.98 10.32 -31 11 C-31 9.68 -31 8.36 -31 7 C-24.39300958 4.68693818 -17.74427709 2.56068007 -11 0.6875 C-9.7625 0.34074219 -8.525 -0.00601563 -7.25 -0.36328125 C-4.2658287 -0.94792058 -2.78307898 -1.0784431 0 0 Z " fill="#E4E4E4" transform="translate(48,33)"/>
<path d="M0 0 C0.33 0 0.66 0 1 0 C1.1959375 1.19238281 1.391875 2.38476562 1.59375 3.61328125 C1.8939684 5.180046 2.19615543 6.74643443 2.5 8.3125 C2.62375 9.09818359 2.7475 9.88386719 2.875 10.69335938 C3.35612371 13.04886086 3.81979862 14.90068896 5 17 C7.67293862 18.6692421 9.8891458 19.22544789 13 20 C11.68 20.33 10.36 20.66 9 21 C9 21.99 9 22.98 9 24 C5.22460591 23.19098698 1.97059267 22.44390638 -0.265625 19.1171875 C-2.60910693 13.77925643 -3.42371876 9.8261329 -3 4 C-2.34 4 -1.68 4 -1 4 C-0.67 2.68 -0.34 1.36 0 0 Z " fill="#E7E7E7" transform="translate(253,127)"/>
<path d="M0 0 C0.91644287 0.00523682 1.83288574 0.01047363 2.77709961 0.01586914 C3.76645508 0.0190918 4.75581055 0.02231445 5.77514648 0.02563477 C6.81606445 0.03401367 7.85698242 0.04239258 8.92944336 0.05102539 C10.49662109 0.05779297 10.49662109 0.05779297 12.09545898 0.06469727 C14.68600996 0.07652627 17.27644895 0.0930085 19.86694336 0.11352539 C20.19694336 2.42352539 20.52694336 4.73352539 20.86694336 7.11352539 C20.20694336 7.11352539 19.54694336 7.11352539 18.86694336 7.11352539 C18.53694336 7.77352539 18.20694336 8.43352539 17.86694336 9.11352539 C17.20694336 9.11352539 16.54694336 9.11352539 15.86694336 9.11352539 C15.86694336 7.13352539 15.86694336 5.15352539 15.86694336 3.11352539 C11.24694336 3.44352539 6.62694336 3.77352539 1.86694336 4.11352539 C1.20694336 6.09352539 0.54694336 8.07352539 -0.13305664 10.11352539 C-0.79305664 9.78352539 -1.45305664 9.45352539 -2.13305664 9.11352539 C-2.58227539 7.30102539 -2.58227539 7.30102539 -2.82055664 5.11352539 C-2.90692383 4.39165039 -2.99329102 3.66977539 -3.08227539 2.92602539 C-3.0990332 2.32790039 -3.11579102 1.72977539 -3.13305664 1.11352539 C-2.13305664 0.11352539 -2.13305664 0.11352539 0 0 Z " fill="#F1F1F1" transform="translate(218.133056640625,94.886474609375)"/>
<path d="M0 0 C3.64037693 5.4605654 3.13239068 11.53107667 3.0625 17.875 C3.05798828 18.65875 3.05347656 19.4425 3.04882812 20.25 C3.03714093 22.16670014 3.01920908 24.08336048 3 26 C2.01 26.33 1.02 26.66 0 27 C-2.42130331 23.36804504 -2.21022785 21.61650652 -2.125 17.3125 C-2.09792969 15.54326172 -2.09792969 15.54326172 -2.0703125 13.73828125 C-2.04710937 12.83464844 -2.02390625 11.93101563 -2 11 C-1.34 11 -0.68 11 0 11 C-0.99 8.36 -1.98 5.72 -3 3 C-2.01 2.01 -1.02 1.02 0 0 Z " fill="#F6F6F6" transform="translate(167,111)"/>
<path d="M0 0 C0.99 0 1.98 0 3 0 C2.46061042 5.28601792 1.54127956 9.3712408 -1 14 C-4.3190959 15.95741553 -6.07618453 16 -10 16 C-9.67 14.35 -9.34 12.7 -9 11 C-9.99 10.34 -10.98 9.68 -12 9 C-10.39125 8.9071875 -10.39125 8.9071875 -8.75 8.8125 C-4.9050976 8.33365811 -4.9050976 8.33365811 -2.625 5.625 C-0.8853003 3.04001152 -0.8853003 3.04001152 0 0 Z " fill="#EFEFEF" transform="translate(81,130)"/>
<path d="M0 0 C0.33 0 0.66 0 1 0 C1.33506301 8.54410675 1.33506301 8.54410675 -1 12 C-4.89743395 14.44560099 -8.42461327 16.128603 -13.0625 15.75 C-13.701875 15.5025 -14.34125 15.255 -15 15 C-15.33 13.68 -15.66 12.36 -16 11 C-15.01 11 -14.02 11 -13 11 C-11.43141704 10.69657808 -9.86886477 10.36089618 -8.3125 10 C-7.50425781 9.814375 -6.69601563 9.62875 -5.86328125 9.4375 C-5.24839844 9.293125 -4.63351563 9.14875 -4 9 C-3.67 7.35 -3.34 5.7 -3 4 C-2.34 4.66 -1.68 5.32 -1 6 C-0.67 4.02 -0.34 2.04 0 0 Z " fill="#E5E5E5" transform="translate(201,126)"/>
<path d="M0 0 C-1.09299501 1.98535806 -2.19976236 3.96313943 -3.3125 5.9375 C-3.92738281 7.03964844 -4.54226562 8.14179687 -5.17578125 9.27734375 C-7 12 -7 12 -10 13 C-10.33 9.04 -10.66 5.08 -11 1 C-4.03571429 -1.27678571 -4.03571429 -1.27678571 0 0 Z " fill="#FBFBFB" transform="translate(160,103)"/>
<path d="M0 0 C1.9453125 -0.29296875 1.9453125 -0.29296875 4.125 -0.1875 C5.40375 -0.125625 6.6825 -0.06375 8 0 C7.44040477 3.82246588 5.78682643 5.58971741 3.0625 8.25 C2.35222656 8.95640625 1.64195313 9.6628125 0.91015625 10.390625 C-1 12 -1 12 -3 12 C-2.88541307 10.56163249 -2.75790884 9.12429034 -2.625 7.6875 C-2.55539063 6.88699219 -2.48578125 6.08648437 -2.4140625 5.26171875 C-2 3 -2 3 0 0 Z " fill="#EEEEEE" transform="translate(42,106)"/>
<path d="M0 0 C0.33 0 0.66 0 1 0 C1 1.98 1 3.96 1 6 C2.65 6.33 4.3 6.66 6 7 C6.41713515 8.43146378 6.8080497 9.87058886 7.1875 11.3125 C7.40792969 12.11300781 7.62835938 12.91351563 7.85546875 13.73828125 C8 16 8 16 6.55078125 17.79296875 C6.03902344 18.19128906 5.52726562 18.58960937 5 19 C2 13.375 2 13.375 2 10 C0.35 9.67 -1.3 9.34 -3 9 C-3 8.01 -3 7.02 -3 6 C-2.01 6 -1.02 6 0 6 C0 4.02 0 2.04 0 0 Z " fill="#E3E3E3" transform="translate(281,107)"/>
<path d="M0 0 C-0.33 0.66 -0.66 1.32 -1 2 C-1.0396713 3.66619446 -1.04384447 5.33391013 -1 7 C-1.33 5.68 -1.66 4.36 -2 3 C-2.65226562 3.144375 -3.30453125 3.28875 -3.9765625 3.4375 C-8.72620177 4.44627294 -13.11409188 5.25715306 -18 5 C-18 3.68 -18 2.36 -18 1 C-15.75152519 0.63627613 -13.50113812 0.28435904 -11.25 -0.0625 C-9.99703125 -0.25972656 -8.7440625 -0.45695312 -7.453125 -0.66015625 C-4.49983411 -0.95080818 -2.7397586 -0.98935727 0 0 Z " fill="#ECECEC" transform="translate(269,73)"/>
<path d="M0 0 C4.13263259 0.34438605 7.38108204 2.06429969 11 4 C10.01 4.33 9.02 4.66 8 5 C7.26676204 7.01508358 7.26676204 7.01508358 7 9 C5.02 8.01 3.04 7.02 1 6 C1.33 5.34 1.66 4.68 2 4 C1.236875 4.185625 0.47375 4.37125 -0.3125 4.5625 C-3 5 -3 5 -6 4 C-6.33 4.66 -6.66 5.32 -7 6 C-8 7 -8 7 -11.5625 7.0625 C-12.696875 7.041875 -13.83125 7.02125 -15 7 C-12.56663891 4.05266165 -10.66655874 3.5031746 -6.9375 2.9375 C-3.01772316 2.42077081 -3.01772316 2.42077081 0 0 Z " fill="#E1E1E1" transform="translate(157,99)"/>
<path d="M0 0 C0.99 0.33 1.98 0.66 3 1 C3.80078125 2.99609375 3.80078125 2.99609375 4.3125 5.4375 C4.49425781 6.24058594 4.67601562 7.04367188 4.86328125 7.87109375 C4.90839844 8.57363281 4.95351563 9.27617187 5 10 C4.34 10.66 3.68 11.32 3 12 C0.6171875 11.9765625 0.6171875 11.9765625 -2.125 11.625 C-3.03507812 11.51414063 -3.94515625 11.40328125 -4.8828125 11.2890625 C-5.58148438 11.19367188 -6.28015625 11.09828125 -7 11 C-7 9.68 -7 8.36 -7 7 C-4.69 7 -2.38 7 0 7 C0 4.69 0 2.38 0 0 Z " fill="#F0F0F0" transform="translate(269,141)"/>
<path d="M0 0 C2.475 0.99 2.475 0.99 5 2 C5 6 5 6 2.75 8.6875 C0.28009379 10.76446659 -0.87510383 11.65278931 -4 12 C-3.5317879 7.22423661 -2.75668002 3.95523655 0 0 Z " fill="#EDEDED" transform="translate(37,122)"/>
<path d="M0 0 C1.918125 0.1546875 1.918125 0.1546875 3.875 0.3125 C4.95394531 0.39951172 4.95394531 0.39951172 6.0546875 0.48828125 C8 1 8 1 10 4 C8.75 5.5 8.75 5.5 7 7 C5.68 7 4.36 7 3 7 C2.67 7.66 2.34 8.32 2 9 C1.01 9 0.02 9 -1 9 C-1 8.01 -1 7.02 -1 6 C-1.99 5.34 -2.98 4.68 -4 4 C-2.35 4 -0.7 4 1 4 C0.67 2.68 0.34 1.36 0 0 Z " fill="#ECECEC" transform="translate(69,95)"/>
<path d="M0 0 C0.99 0.33 1.98 0.66 3 1 C3 3.64 3 6.28 3 9 C0.35261084 10.4606285 -0.89448334 11 -4 11 C-4.49230769 4.6 -4.49230769 4.6 -2 1.5625 C-1.34 1.046875 -0.68 0.53125 0 0 Z " fill="#F5F5F5" transform="translate(110,115)"/>
<path d="M0 0 C0 2.66666667 0 5.33333333 0 8 C-3.30435084 9.12377697 -5.0506862 8.89554742 -8.25 7.5625 C-8.95640625 7.27503906 -9.6628125 6.98757812 -10.390625 6.69140625 C-10.92171875 6.46324219 -11.4528125 6.23507813 -12 6 C-11.34 4.35 -10.68 2.7 -10 1 C-7.98177083 1.32552083 -5.96354167 1.65104167 -3.9453125 1.9765625 C-2.98238281 1.98816406 -2.98238281 1.98816406 -2 2 C-1.34 1.34 -0.68 0.68 0 0 Z " fill="#E6E6E6" transform="translate(89,82)"/>
<path d="M0 0 C4.2742558 1.5830577 6.26531794 4.50568404 9 8 C4.375 11 4.375 11 1 11 C0.63890458 9.35567294 0.28629924 7.7094792 -0.0625 6.0625 C-0.25972656 5.14597656 -0.45695312 4.22945312 -0.66015625 3.28515625 C-0.77230469 2.53105469 -0.88445313 1.77695312 -1 1 C-0.67 0.67 -0.34 0.34 0 0 Z " fill="#0E0E0E" transform="translate(47,56)"/>
<path d="M0 0 C0.7425 0.804375 1.485 1.60875 2.25 2.4375 C4.8202578 4.83251295 5.68642899 5.54295572 9 6 C9.66 6.33 10.32 6.66 11 7 C10.67 7.66 10.34 8.32 10 9 C8.66923011 9.34342449 7.33568021 9.67619874 6 10 C5.34 10.66 4.68 11.32 4 12 C2.79794536 10.93283928 1.61367667 9.84561663 0.4375 8.75 C-0.22378906 8.14671875 -0.88507813 7.5434375 -1.56640625 6.921875 C-3 5 -3 5 -2.83984375 2.828125 C-2 1 -2 1 0 0 Z " fill="#F2F2F2" transform="translate(220,144)"/>
<path d="M0 0 C0.79921875 0.01804687 1.5984375 0.03609375 2.421875 0.0546875 C3.02515625 0.07789062 3.6284375 0.10109375 4.25 0.125 C3.92 1.445 3.59 2.765 3.25 4.125 C2.40695313 4.24617188 1.56390625 4.36734375 0.6953125 4.4921875 C-0.40039062 4.65976563 -1.49609375 4.82734375 -2.625 5 C-3.71554688 5.16242188 -4.80609375 5.32484375 -5.9296875 5.4921875 C-8.86932714 5.88756513 -8.86932714 5.88756513 -10.75 8.125 C-10.75 6.475 -10.75 4.825 -10.75 3.125 C-10.09 2.795 -9.43 2.465 -8.75 2.125 C-8.14671875 1.77695313 -7.5434375 1.42890625 -6.921875 1.0703125 C-4.43043239 -0.01409238 -2.70155625 -0.07945754 0 0 Z " fill="#F9F9F9" transform="translate(129.75,101.875)"/>
<path d="M0 0 C0.99 0.33 1.98 0.66 3 1 C3 2.32 3 3.64 3 5 C4.98 4.34 6.96 3.68 9 3 C8.67 5.97 8.34 8.94 8 12 C7.01 12 6.02 12 5 12 C5 11.34 5 10.68 5 10 C3.35 10 1.7 10 0 10 C0 6.7 0 3.4 0 0 Z " fill="#F7F7F7" transform="translate(110,59)"/>
<path d="M0 0 C0.33 0.66 0.66 1.32 1 2 C2.65 1.67 4.3 1.34 6 1 C4.60865582 5.42700422 2.52115858 7.99413292 -1 11 C-1.99 11 -2.98 11 -4 11 C-4.33 11.99 -4.66 12.98 -5 14 C-5.6484375 12.22265625 -5.6484375 12.22265625 -6 10 C-5.0390625 8.18359375 -5.0390625 8.18359375 -3.625 6.4375 C-1.80605026 4.15619153 -0.94649117 2.83947352 0 0 Z " fill="#E7E7E7" transform="translate(222,134)"/>
<path d="M0 0 C0.66 0.33 1.32 0.66 2 1 C2 1.66 2 2.32 2 3 C4.97 3.495 4.97 3.495 8 4 C7.67 6.31 7.34 8.62 7 11 C2.25003088 10.29630087 -0.70531276 7.29468724 -4 4 C-2.68 2.68 -1.36 1.36 0 0 Z " fill="#E5E5E5" transform="translate(119,82)"/>
<path d="M0 0 C-2 2 -2 2 -4.625 3.6875 C-8.7597166 6.37915957 -12.34729705 9.69958819 -16 13 C-16.66 12.34 -17.32 11.68 -18 11 C-13.69967214 5.15155412 -7.9046535 -2.45316833 0 0 Z " fill="#E6E6E6" transform="translate(148,62)"/>
<path d="M0 0 C0.99 0.33 1.98 0.66 3 1 C3 3.64 3 6.28 3 9 C1.35 9.66 -0.3 10.32 -2 11 C-2.66 10.34 -3.32 9.68 -4 9 C-4.99 9 -5.98 9 -7 9 C-4.69 6.03 -2.38 3.06 0 0 Z " fill="#ECECEC" transform="translate(97,72)"/>
<path d="M0 0 C1.32 0.66 2.64 1.32 4 2 C4 4.97 4 7.94 4 11 C2.35 11 0.7 11 -1 11 C-1 10.01 -1 9.02 -1 8 C-1.66 8 -2.32 8 -3 8 C-3.33 7.01 -3.66 6.02 -4 5 C-2.68 4.34 -1.36 3.68 0 3 C0 2.01 0 1.02 0 0 Z " fill="#F7F7F7" transform="translate(186,67)"/>
<path d="M0 0 C0.33 0.99 0.66 1.98 1 3 C0.34 3 -0.32 3 -1 3 C-1 3.66 -1 4.32 -1 5 C-6.94 5.495 -6.94 5.495 -13 6 C-13 5.01 -13 4.02 -13 3 C-12.05125 2.690625 -11.1025 2.38125 -10.125 2.0625 C-3.76724138 -0.09913793 -3.76724138 -0.09913793 0 0 Z M-14 6 C-13.67 6.99 -13.34 7.98 -13 9 C-13.66 9 -14.32 9 -15 9 C-14.67 8.01 -14.34 7.02 -14 6 Z " fill="#FAFAFA" transform="translate(79,101)"/>
<path d="M0 0 C0.99386719 0.00902344 1.98773438 0.01804687 3.01171875 0.02734375 C4.15060547 0.04474609 4.15060547 0.04474609 5.3125 0.0625 C4.9825 1.0525 4.6525 2.0425 4.3125 3.0625 C2.38671875 3.7578125 2.38671875 3.7578125 0 4.1875 C-1.16982422 4.40792969 -1.16982422 4.40792969 -2.36328125 4.6328125 C-3.51376953 4.84550781 -3.51376953 4.84550781 -4.6875 5.0625 C-6.02333795 5.3856499 -7.35763726 5.71557929 -8.6875 6.0625 C-9.0175 5.4025 -9.3475 4.7425 -9.6875 4.0625 C-9.3575 3.0725 -9.0275 2.0825 -8.6875 1.0625 C-5.53819107 0.01273036 -3.29935544 -0.03881595 0 0 Z " fill="#F7F7F7" transform="translate(173.6875,102.9375)"/>
<path d="M0 0 C0.99 0 1.98 0 3 0 C3 0.66 3 1.32 3 2 C2.34 2 1.68 2 1 2 C0.67 2.99 0.34 3.98 0 5 C-5.50773558 6.12658228 -5.50773558 6.12658228 -8.1875 5.4375 C-8.785625 5.293125 -9.38375 5.14875 -10 5 C-10.99 5.66 -11.98 6.32 -13 7 C-13 5.68 -13 4.36 -13 3 C-8.86275742 0.9940642 -5.55550345 0.91239416 -1 1 C-0.67 0.67 -0.34 0.34 0 0 Z " fill="#E5E5E5" transform="translate(30,37)"/>
<path d="M0 0 C0.66 0.66 1.32 1.32 2 2 C1 5 1 5 -0.4375 6.3125 C-2.57771562 8.62393287 -3.12610989 11.00380535 -4 14 C-5.22934015 17.68802044 -6.93859378 18.72356973 -10 21 C-10 16.99077103 -9.7699768 16.12046171 -7.8125 12.890625 C-7.36132812 12.13652344 -6.91015625 11.38242188 -6.4453125 10.60546875 C-5.96835938 9.82816406 -5.49140625 9.05085938 -5 8.25 C-4.52304688 7.45722656 -4.04609375 6.66445312 -3.5546875 5.84765625 C-2.37752878 3.89357278 -1.19248034 1.94475782 0 0 Z " fill="#E8E8E8" transform="translate(161,118)"/>
<path d="M0 0 C0.70125 0.350625 1.4025 0.70125 2.125 1.0625 C5.50268586 2.1639193 7.58080593 1.79516141 11 1 C11 2.32 11 3.64 11 5 C11.66 5.33 12.32 5.66 13 6 C10.69 6.33 8.38 6.66 6 7 C5.67 6.34 5.34 5.68 5 5 C2.03824877 5.61277612 0.61941217 6.25372522 -2 8 C-1.125 1.125 -1.125 1.125 0 0 Z " fill="#E5E5E5" transform="translate(172,70)"/>
<path d="M0 0 C0.598125 0.165 1.19625 0.33 1.8125 0.5 C4.30708782 1.2438266 4.30708782 1.2438266 8 0 C6.35 3.96 4.7 7.92 3 12 C1.68 11.34 0.36 10.68 -1 10 C-0.34 7.36 0.32 4.72 1 2 C0.34 1.67 -0.32 1.34 -1 1 C-0.67 0.67 -0.34 0.34 0 0 Z " fill="#FAFAFA" transform="translate(21,106)"/>
<path d="M0 0 C-0.33 3.3 -0.66 6.6 -1 10 C-2.65 10.33 -4.3 10.66 -6 11 C-6.125 4.375 -6.125 4.375 -5 1 C-3.28960011 0.41205004 -1.81522119 0 0 0 Z " fill="#F4F4F4" transform="translate(288,52)"/>
<path d="M0 0 C2.4375 0.8125 2.4375 0.8125 5 2 C6.28317892 5.84953676 6.06643637 8.94738135 6 13 C5.67 11.68 5.34 10.36 5 9 C4.34 9 3.68 9 3 9 C2.34 10.32 1.68 11.64 1 13 C1 10.03 1 7.06 1 4 C0.01 3.67 -0.98 3.34 -2 3 C-1.34 2.01 -0.68 1.02 0 0 Z " fill="#DEDEDE" transform="translate(108,51)"/>
<path d="M0 0 C2.16874252 0.50603992 3.99967627 0.99983813 6 2 C6.72693904 3.97888961 7.39816251 5.97954558 8 8 C3.28093812 8 1.72962969 6.71245796 -2 4 C-1.34 2.68 -0.68 1.36 0 0 Z " fill="#F0F0F0" transform="translate(15,141)"/>
<path d="M0 0 C0.33 0 0.66 0 1 0 C1 1.65 1 3.3 1 5 C1.61875 5.268125 2.2375 5.53625 2.875 5.8125 C5 7 5 7 7 10 C0.375 11.125 0.375 11.125 -3 10 C-2.01 6.7 -1.02 3.4 0 0 Z " fill="#151515" transform="translate(225,77)"/>
<path d="M0 0 C0 3.3 0 6.6 0 10 C-4 8 -4 8 -6 6 C-6 5.01 -6 4.02 -6 3 C-2.66666667 0 -2.66666667 0 0 0 Z " fill="#191919" transform="translate(71,59)"/>
<path d="M0 0 C1.85776765 3.13498292 2.20140476 5.37471432 2 9 C0.02 9.33 -1.96 9.66 -4 10 C-4.33 8.68 -4.66 7.36 -5 6 C-4.360625 5.7525 -3.72125 5.505 -3.0625 5.25 C-0.81258459 4.18437567 -0.81258459 4.18437567 -0.25 1.875 C-0.1675 1.25625 -0.085 0.6375 0 0 Z " fill="#F7F7F7" transform="translate(140,130)"/>
<path d="M0 0 C1.32 0 2.64 0 4 0 C4.33 3.3 4.66 6.6 5 10 C4.34 10 3.68 10 3 10 C2.67 11.65 2.34 13.3 2 15 C0.52722666 12.05445331 1 9.27233441 1 6 C0.70814937 3.9935269 0.38830401 1.99005807 0 0 Z " fill="#D6D6D6" transform="translate(238,130)"/>
<path d="M0 0 C0.33 0 0.66 0 1 0 C1.19561869 2.0825867 1.38119313 4.16611856 1.5625 6.25 C1.66691406 7.41015625 1.77132812 8.5703125 1.87890625 9.765625 C1.98198087 12.51871477 1.86213473 14.419982 1 17 C0.01 17 -0.98 17 -2 17 C-1.85978195 14.35375716 -1.71310224 11.70815422 -1.5625 9.0625 C-1.52318359 8.30775391 -1.48386719 7.55300781 -1.44335938 6.77539062 C-1.11328125 1.11328125 -1.11328125 1.11328125 0 0 Z " fill="#212121" transform="translate(204,74)"/>
<path d="M0 0 C2.31 0 4.62 0 7 0 C7.33 0.99 7.66 1.98 8 3 C8.99 3 9.98 3 11 3 C10.67 3.99 10.34 4.98 10 6 C7.36 6.33 4.72 6.66 2 7 C2.33 5.35 2.66 3.7 3 2 C2.01 1.34 1.02 0.68 0 0 Z " fill="#E9E9E9" transform="translate(69,139)"/>
<path d="M0 0 C0.33 0.66 0.66 1.32 1 2 C2.32 1.67 3.64 1.34 5 1 C6.32 2.65 7.64 4.3 9 6 C7.68 6.99 6.36 7.98 5 9 C2.5 6.75 2.5 6.75 0 4 C0 2.68 0 1.36 0 0 Z " fill="#F1F1F1" transform="translate(93,131)"/>
<path d="M0 0 C0.99 0 1.98 0 3 0 C3.25 6.625 3.25 6.625 1 10 C0.01 10 -0.98 10 -2 10 C-1.125 2.25 -1.125 2.25 0 0 Z " fill="#E7E7E7" transform="translate(184,122)"/>
<path d="M0 0 C1.32 0.66 2.64 1.32 4 2 C3.45276317 5.37462715 2.9451 7.08235 1 10 C0.34 10 -0.32 10 -1 10 C-1.02689216 8.52093108 -1.04634621 7.04172517 -1.0625 5.5625 C-1.07410156 4.73878906 -1.08570313 3.91507812 -1.09765625 3.06640625 C-1 1 -1 1 0 0 Z " fill="#E9E9E9" transform="translate(151,106)"/>
<path d="M0 0 C1.134375 0.020625 2.26875 0.04125 3.4375 0.0625 C2.4475 0.3925 1.4575 0.7225 0.4375 1.0625 C-0.36813638 3.16834438 -0.36813638 3.16834438 -0.75 5.625 C-0.98783203 6.86443359 -0.98783203 6.86443359 -1.23046875 8.12890625 C-1.34003906 8.76699219 -1.44960937 9.40507813 -1.5625 10.0625 C-2.2225 9.7325 -2.8825 9.4025 -3.5625 9.0625 C-4.01171875 7.25 -4.01171875 7.25 -4.25 5.0625 C-4.33636719 4.340625 -4.42273438 3.61875 -4.51171875 2.875 C-4.52847656 2.276875 -4.54523438 1.67875 -4.5625 1.0625 C-3.5625 0.0625 -3.5625 0.0625 0 0 Z " fill="#F5F5F5" transform="translate(219.5625,94.9375)"/>
<path d="M0 0 C2.31 0 4.62 0 7 0 C6.46930939 3.82097239 5.50298434 6.06171403 3 9 C3 8.34 3 7.68 3 7 C2.34 7 1.68 7 1 7 C0.67 4.69 0.34 2.38 0 0 Z " fill="#FBFBFB" transform="translate(211,35)"/>
<path d="M0 0 C2.4375 0.625 2.4375 0.625 5 2 C5.8125 5.125 5.8125 5.125 6 8 C4.68 8.33 3.36 8.66 2 9 C0.50178941 5.62902617 0 3.79557881 0 0 Z " fill="#EFEFEF" transform="translate(221,127)"/>
<path d="M0 0 C-0.6796875 1.890625 -0.6796875 1.890625 -2 4 C-4.3828125 5.046875 -4.3828125 5.046875 -7.125 5.75 C-8.03507813 5.99234375 -8.94515625 6.2346875 -9.8828125 6.484375 C-10.93082031 6.73960938 -10.93082031 6.73960938 -12 7 C-12 6.01 -12 5.02 -12 4 C-10.3767313 3.3291288 -8.75132422 2.66342971 -7.125 2 C-6.22007812 1.62875 -5.31515625 1.2575 -4.3828125 0.875 C-2 0 -2 0 0 0 Z " fill="#DDDDDD" transform="translate(260,61)"/>
<path d="M0 0 C0.4375 2.1875 0.4375 2.1875 0 5 C-2.51699625 7.44432707 -5.39004446 10 -9 10 C-8.67 8.68 -8.34 7.36 -8 6 C-6.68 6 -5.36 6 -4 6 C-4 4.68 -4 3.36 -4 2 C-1 0 -1 0 0 0 Z " fill="#E7E7E7" transform="translate(234,147)"/>
<path d="M0 0 C2.7839183 1.39195915 2.97898997 3.15575779 4 6 C3.01 6.33 2.02 6.66 1 7 C0.34 7.66 -0.32 8.32 -1 9 C-4 4.25 -4 4.25 -4 2 C-3.01 2 -2.02 2 -1 2 C-0.67 1.34 -0.34 0.68 0 0 Z " fill="#E1E1E1" transform="translate(93,126)"/>
<path d="M0 0 C1.32 0.66 2.64 1.32 4 2 C1.44931155 4.35448165 0.28982642 4.98327924 -3.25 5.1875 C-4.1575 5.125625 -5.065 5.06375 -6 5 C-6 3.68 -6 2.36 -6 1 C-4.7934375 1.0309375 -4.7934375 1.0309375 -3.5625 1.0625 C-1.06645115 1.29633621 -1.06645115 1.29633621 0 0 Z " fill="#FAFAFA" transform="translate(115,82)"/>
<path d="M0 0 C0.94875 0.04125 1.8975 0.0825 2.875 0.125 C1.42244301 3.95446843 -0.55395561 5.24550295 -4.125 7.125 C-4.75 4.75 -4.75 4.75 -5.125 2.125 C-3.125 0.125 -3.125 0.125 0 0 Z " fill="#F9F9F9" transform="translate(272.125,71.875)"/>
<path d="M0 0 C2.64 0 5.28 0 8 0 C7.67 1.65 7.34 3.3 7 5 C4.625 4.75 4.625 4.75 2 4 C0.6875 1.9375 0.6875 1.9375 0 0 Z " fill="#EEEEEE" transform="translate(71,82)"/>
<path d="M0 0 C0.66 0.33 1.32 0.66 2 1 C1.43628586 4.26954202 0.50037734 5.82575883 -2 8 C-3.32 7.34 -4.64 6.68 -6 6 C-4 4 -2 2 0 0 Z " fill="#FAFAFA" transform="translate(93,80)"/>
<path d="M0 0 C1.65 0 3.3 0 5 0 C5 1.98 5 3.96 5 6 C4.01 6 3.02 6 2 6 C2 5.34 2 4.68 2 4 C1.34 4 0.68 4 0 4 C-0.33 5.32 -0.66 6.64 -1 8 C-1.125 2.25 -1.125 2.25 0 0 Z " fill="#D7D7D7" transform="translate(185,78)"/>
<path d="M0 0 C0.33 0 0.66 0 1 0 C1 3.3 1 6.6 1 10 C-0.32 9.67 -1.64 9.34 -3 9 C-3.99 9 -4.98 9 -6 9 C-4.625 6.5 -4.625 6.5 -3 4 C-2.34 4 -1.68 4 -1 4 C-0.67 2.68 -0.34 1.36 0 0 Z " fill="#F7F7F7" transform="translate(191,50)"/>
<path d="M0 0 C-0.33 1.32 -0.66 2.64 -1 4 C-3.64 4.33 -6.28 4.66 -9 5 C-7.93411431 2.09303901 -7.29651501 1.15567038 -4.5 -0.3125 C-2 -1 -2 -1 0 0 Z " fill="#F3F3F3" transform="translate(52,32)"/>
<path d="M0 0 C0.99 0.66 1.98 1.32 3 2 C2.34 2 1.68 2 1 2 C1.33 3.98 1.66 5.96 2 8 C1.67 8 1.34 8 1 8 C0.67 9.65 0.34 11.3 0 13 C-0.33 13 -0.66 13 -1 13 C-1 10.03 -1 7.06 -1 4 C-2.98 4 -4.96 4 -7 4 C-7 3.67 -7 3.34 -7 3 C-5.5459375 2.814375 -5.5459375 2.814375 -4.0625 2.625 C-2.5465625 2.315625 -2.5465625 2.315625 -1 2 C-0.67 1.34 -0.34 0.68 0 0 Z " fill="#D8D8D8" transform="translate(179,103)"/>
<path d="M0 0 C2.91517292 1.07401108 4.77810176 1.77810176 7 4 C0.375 6.125 0.375 6.125 -3 5 C-2.01 3.35 -1.02 1.7 0 0 Z " fill="#171717" transform="translate(158,105)"/>
<path d="M0 0 C-0.33 0.66 -0.66 1.32 -1 2 C-1.0396713 3.66619446 -1.04384447 5.33391013 -1 7 C-1.33 5.68 -1.66 4.36 -2 3 C-3.65 3.33 -5.3 3.66 -7 4 C-6.67 3.34 -6.34 2.68 -6 2 C-8.97 1.505 -8.97 1.505 -12 1 C-12 0.67 -12 0.34 -12 0 C-3.42857143 -1.28571429 -3.42857143 -1.28571429 0 0 Z " fill="#DFDFDF" transform="translate(269,73)"/>
<path d="M0 0 C0.99 0.33 1.98 0.66 3 1 C3 1.99 3 2.98 3 4 C2.01 4 1.02 4 0 4 C0 2.68 0 1.36 0 0 Z M-2 1 C-1.01 2.32 -0.02 3.64 1 5 C0 7 0 7 -2 8 C-2.66 6.35 -3.32 4.7 -4 3 C-3.34 2.34 -2.68 1.68 -2 1 Z " fill="#B9B9B9" transform="translate(64,117)"/>
<path d="M0 0 C0.99 0 1.98 0 3 0 C2.67 2.97 2.34 5.94 2 9 C1.67 8.34 1.34 7.68 1 7 C0.01 7 -0.98 7 -2 7 C-1.34 4.69 -0.68 2.38 0 0 Z " fill="#E9E9E9" transform="translate(220,79)"/>
<path d="M0 0 C3 1.5 3 1.5 6 3 C5.34 4.32 4.68 5.64 4 7 C2.0625 6.625 2.0625 6.625 0 6 C-1.24546405 3.50907189 -0.7767578 2.58919267 0 0 Z " fill="#F3F3F3" transform="translate(43,65)"/>
<path d="M0 0 C-0.99 0.495 -0.99 0.495 -2 1 C-3.13350534 3.01669827 -3.13350534 3.01669827 -4 5 C-4.99 5 -5.98 5 -7 5 C-7 4.34 -7 3.68 -7 3 C-6.34 3 -5.68 3 -5 3 C-5 2.34 -5 1.68 -5 1 C-8.0745356 1.7763932 -8.0745356 1.7763932 -10 4 C-10 3.34 -10 2.68 -10 2 C-10.66 1.67 -11.32 1.34 -12 1 C-3.96428571 -1.27678571 -3.96428571 -1.27678571 0 0 Z " fill="#DBDBDB" transform="translate(38,36)"/>
<path d="M0 0 C2.31 0 4.62 0 7 0 C6.67 1.32 6.34 2.64 6 4 C3.69 4.33 1.38 4.66 -1 5 C-0.67 3.35 -0.34 1.7 0 0 Z " fill="#F6F6F6" transform="translate(192,30)"/>
<path d="M0 0 C2.125 0.375 2.125 0.375 4 1 C4 1.99 4 2.98 4 4 C1.36 4.66 -1.28 5.32 -4 6 C-2.84826645 3.53199953 -1.95216435 1.95216435 0 0 Z " fill="#F8F8F8" transform="translate(174,74)"/>
<path d="M0 0 C0.66 0.33 1.32 0.66 2 1 C2.33 1.99 2.66 2.98 3 4 C0.75 5.1875 0.75 5.1875 -2 6 C-4.3125 4.625 -4.3125 4.625 -6 3 C-4.03533587 1.93224776 -2.03144641 0.93446535 0 0 Z " fill="#E1E1E1" transform="translate(68,75)"/>
<path d="M0 0 C3.36720387 1.39332574 4.9859524 2.9789286 7 6 C5.35 5.67 3.7 5.34 2 5 C1.67 5.99 1.34 6.98 1 8 C0.34 6.68 -0.32 5.36 -1 4 C-0.34 4 0.32 4 1 4 C0.67 2.68 0.34 1.36 0 0 Z " fill="#E0E0E0" transform="translate(52,53)"/>
<path d="M0 0 C0.33 0 0.66 0 1 0 C1.17835515 4.54805635 0.99785435 7.8794254 -1 12 C-1.99 11.67 -2.98 11.34 -4 11 C-3.67 8.69 -3.34 6.38 -3 4 C-2.34 4.66 -1.68 5.32 -1 6 C-0.67 4.02 -0.34 2.04 0 0 Z " fill="#DCDCDC" transform="translate(201,126)"/>
<path d="M0 0 C2.0625 0.4375 2.0625 0.4375 4 1 C4.33 2.65 4.66 4.3 5 6 C3.35 5.67 1.7 5.34 0 5 C-0.5625 3.0625 -0.5625 3.0625 -1 1 C-0.67 0.67 -0.34 0.34 0 0 Z " fill="#ECECEC" transform="translate(234,84)"/>
<path d="M0 0 C0.33 0.66 0.66 1.32 1 2 C3.52733235 2.65555119 3.52733235 2.65555119 6 3 C4.1875 5 4.1875 5 2 7 C1.01 7 0.02 7 -1 7 C-0.67 4.69 -0.34 2.38 0 0 Z " fill="#E2E2E2" transform="translate(34,127)"/>
<path d="M0 0 C1.65 0.33 3.3 0.66 5 1 C4.67 1.66 4.34 2.32 4 3 C4.66 3.66 5.32 4.32 6 5 C3 6 3 6 0.8125 5.0625 C0.214375 4.711875 -0.38375 4.36125 -1 4 C-0.67 2.68 -0.34 1.36 0 0 Z " fill="#E4E4E4" transform="translate(52,30)"/>
<path d="M0 0 C0.33 0 0.66 0 1 0 C1.3125 3.3125 1.3125 3.3125 1 7 C-1.5 8.9375 -1.5 8.9375 -4 10 C-3.125 5.25 -3.125 5.25 -2 3 C-1.34 3 -0.68 3 0 3 C0 2.01 0 1.02 0 0 Z " fill="#151515" transform="translate(239,136)"/>
<path d="M0 0 C-0.33 0.99 -0.66 1.98 -1 3 C-1.33 2.67 -1.66 2.34 -2 2 C-3.67542976 2.28604898 -5.34385343 2.61781233 -7 3 C-7.33 1.68 -7.66 0.36 -8 -1 C-4.59745511 -2.2151946 -3.06748874 -1.86240388 0 0 Z " fill="#DBDBDB" transform="translate(289,51)"/>
<path d="M0 0 C0 0.66 0 1.32 0 2 C-0.66 2 -1.32 2 -2 2 C-2.33 2.99 -2.66 3.98 -3 5 C-4.98 5.33 -6.96 5.66 -9 6 C-6.55559393 1.46038873 -5.37318307 0 0 0 Z " fill="#EBEBEB" transform="translate(33,37)"/>
<path d="M0 0 C1.9375 1.25 1.9375 1.25 3.9375 4.25 C1.27083333 4.25 -1.39583333 4.25 -4.0625 4.25 C-3.7325 3.59 -3.4025 2.93 -3.0625 2.25 C-3.7225 1.59 -4.3825 0.93 -5.0625 0.25 C-2.0625 -0.75 -2.0625 -0.75 0 0 Z " fill="#E0E0E0" transform="translate(213.0625,31.75)"/>
<path d="M0 0 C0.33 0.66 0.66 1.32 1 2 C2.65 1.67 4.3 1.34 6 1 C4.75023244 4.65316671 4.32901247 5.78065836 1 8 C0.67 5.36 0.34 2.72 0 0 Z " fill="#DADADA" transform="translate(222,134)"/>
<path d="M0 0 C0.99 0.33 1.98 0.66 3 1 C1.38405168 3.04119788 -0.2856382 5.04072937 -2 7 C-2.66 7 -3.32 7 -4 7 C-3.6875 4.625 -3.6875 4.625 -3 2 C-2.01 1.34 -1.02 0.68 0 0 Z " fill="#E6E6E6" transform="translate(110,115)"/>
<path d="M0 0 C0.66 0 1.32 0 2 0 C2 0.99 2 1.98 2 3 C2.66 3 3.32 3 4 3 C3.67 4.65 3.34 6.3 3 8 C1.68 7.34 0.36 6.68 -1 6 C-0.67 4.02 -0.34 2.04 0 0 Z " fill="#F4F4F4" transform="translate(21,110)"/>
<path d="M0 0 C-0.57584432 2.38564077 -1.22227595 4.66682784 -2 7 C-2.99 7.33 -3.98 7.66 -5 8 C-4.67 6.35 -4.34 4.7 -4 3 C-4.66 2.67 -5.32 2.34 -6 2 C-2.25 0 -2.25 0 0 0 Z " fill="#E5E5E5" transform="translate(113,99)"/>
<path d="M0 0 C0.99 0.33 1.98 0.66 3 1 C3 1.66 3 2.32 3 3 C4.32 3.66 5.64 4.32 7 5 C4.39417629 5.93065133 3.35801776 6.14917407 0.75 5.0625 C0.1725 4.711875 -0.405 4.36125 -1 4 C-0.67 2.68 -0.34 1.36 0 0 Z " fill="#E7E7E7" transform="translate(186,87)"/>
<path d="M0 0 C1.32 1.32 2.64 2.64 4 4 C3.34 4.66 2.68 5.32 2 6 C1.34 6 0.68 6 0 6 C-0.66 6.66 -1.32 7.32 -2 8 C-2 7.34 -2 6.68 -2 6 C-3.32 5.67 -4.64 5.34 -6 5 C-4.35 4.67 -2.7 4.34 -1 4 C-0.67 2.68 -0.34 1.36 0 0 Z " fill="#E5E5E5" transform="translate(115,77)"/>
<path d="M0 0 C1.65 0.33 3.3 0.66 5 1 C4.34 2.32 3.68 3.64 3 5 C1.35 4.67 -0.3 4.34 -2 4 C-1.34 2.68 -0.68 1.36 0 0 Z " fill="#F3F3F3" transform="translate(85,28)"/>
<path d="M0 0 C0.66 0.33 1.32 0.66 2 1 C0.625 3 0.625 3 -1 5 C-1.66 5 -2.32 5 -3 5 C-3.66 6.32 -4.32 7.64 -5 9 C-6.32 8.34 -7.64 7.68 -9 7 C-7.88625 6.38125 -7.88625 6.38125 -6.75 5.75 C-4.09828315 4.06254382 -2.13325986 2.29127911 0 0 Z " fill="#1F1F1F" transform="translate(94,84)"/>
<path d="M0 0 C0.33 0.66 0.66 1.32 1 2 C2.65 1.67 4.3 1.34 6 1 C5.67 2.98 5.34 4.96 5 7 C2 6 2 6 0 4 C0 2.68 0 1.36 0 0 Z " fill="#DDDDDD" transform="translate(281,61)"/>
<path d="M0 0 C0.33 0.66 0.66 1.32 1 2 C3.01669827 3.13350534 3.01669827 3.13350534 5 4 C3.02 5.32 1.04 6.64 -1 8 C-1.33 7.01 -1.66 6.02 -2 5 C-1.34 5 -0.68 5 0 5 C-0.2784375 4.0409375 -0.2784375 4.0409375 -0.5625 3.0625 C-0.7790625 2.0415625 -0.7790625 2.0415625 -1 1 C-0.67 0.67 -0.34 0.34 0 0 Z " fill="#E4E4E4" transform="translate(119,60)"/>
<path d="M0 0 C1.65 0.33 3.3 0.66 5 1 C4.67 2.32 4.34 3.64 4 5 C2.68 5 1.36 5 0 5 C-0.33 5.99 -0.66 6.98 -1 8 C-0.67 5.36 -0.34 2.72 0 0 Z " fill="#DDDDDD" transform="translate(190,33)"/>
<path d="M0 0 C0.99 0 1.98 0 3 0 C2.67 2.31 2.34 4.62 2 7 C0.68 6.01 -0.64 5.02 -2 4 C-1.34 2.68 -0.68 1.36 0 0 Z " fill="#F8F8F8" transform="translate(81,130)"/>
<path d="M0 0 C0 1.65 0 3.3 0 5 C-1.32 4.34 -2.64 3.68 -4 3 C-1.125 0 -1.125 0 0 0 Z M-6 4 C-5.34 4.33 -4.68 4.66 -4 5 C-5.485 6.485 -5.485 6.485 -7 8 C-7.99 7.67 -8.98 7.34 -10 7 C-8.68 6.01 -7.36 5.02 -6 4 Z " fill="#E1E1E1" transform="translate(132,51)"/>
<path d="M0 0 C0.99 0.33 1.98 0.66 3 1 C3.33 3.31 3.66 5.62 4 8 C3.01 7.67 2.02 7.34 1 7 C0.67 4.69 0.34 2.38 0 0 Z " fill="#FDFDFD" transform="translate(269,141)"/>
<path d="M0 0 C0.66 0.33 1.32 0.66 2 1 C2 2.65 2 4.3 2 6 C0.68 6 -0.64 6 -2 6 C-1.125 1.125 -1.125 1.125 0 0 Z " fill="#EAEAEA" transform="translate(40,140)"/>
<path d="M0 0 C0.66 0.33 1.32 0.66 2 1 C1.690625 1.598125 1.38125 2.19625 1.0625 2.8125 C-0.10209704 5.08956772 -0.10209704 5.08956772 -1 8 C-1.99 7.67 -2.98 7.34 -4 7 C-4 5.68 -4 4.36 -4 3 C-2 1.25 -2 1.25 0 0 Z " fill="#121212" transform="translate(54,136)"/>
<path d="M0 0 C1 3 1 3 0.22265625 4.82421875 C-0.8515625 6.54947917 -1.92578125 8.27473958 -3 10 C-3.33 10 -3.66 10 -4 10 C-4 8.02 -4 6.04 -4 4 C-3.34 4 -2.68 4 -2 4 C-1.34 2.68 -0.68 1.36 0 0 Z " fill="#FCFCFC" transform="translate(183,106)"/>
<path d="M0 0 C2.64 0 5.28 0 8 0 C7.67 1.32 7.34 2.64 7 4 C6.01 4 5.02 4 4 4 C4 3.01 4 2.02 4 1 C2.68 0.67 1.36 0.34 0 0 Z " fill="#D7D7D7" transform="translate(42,106)"/>
<path d="M0 0 C1.32 0.33 2.64 0.66 4 1 C3.01 2.98 2.02 4.96 1 7 C0.01 5.68 -0.98 4.36 -2 3 C-1.34 2.01 -0.68 1.02 0 0 Z " fill="#F5F5F5" transform="translate(156,102)"/>
<path d="M0 0 C0.99 0.33 1.98 0.66 3 1 C2.67 1.99 2.34 2.98 2 4 C-1.96 3.67 -5.92 3.34 -10 3 C-10 2.67 -10 2.34 -10 2 C-9.04287109 1.90912109 -9.04287109 1.90912109 -8.06640625 1.81640625 C-6.82697266 1.69072266 -6.82697266 1.69072266 -5.5625 1.5625 C-4.73878906 1.48128906 -3.91507813 1.40007812 -3.06640625 1.31640625 C-1.01337975 1.21069185 -1.01337975 1.21069185 0 0 Z " fill="#303030" transform="translate(180,100)"/>
<path d="M0 0 C1.32 0.66 2.64 1.32 4 2 C3.01 3.32 2.02 4.64 1 6 C0.01 5.67 -0.98 5.34 -2 5 C-1.34 3.35 -0.68 1.7 0 0 Z " fill="#F4F4F4" transform="translate(127,86)"/>
<path d="M0 0 C0.66 0.66 1.32 1.32 2 2 C1.8125 4.0625 1.8125 4.0625 1 6 C0.01 6.33 -0.98 6.66 -2 7 C-1.125 1.125 -1.125 1.125 0 0 Z " fill="#FAFAFA" transform="translate(31,147)"/>
<path d="M0 0 C0.66 0.33 1.32 0.66 2 1 C1.67 1.99 1.34 2.98 1 4 C1.66 4.33 2.32 4.66 3 5 C1.02 5.99 1.02 5.99 -1 7 C-1.625 4.625 -1.625 4.625 -2 2 C-1.34 1.34 -0.68 0.68 0 0 Z " fill="#E3E3E3" transform="translate(114,133)"/>
<path d="M0 0 C0.66 0 1.32 0 2 0 C2 2.31 2 4.62 2 7 C1.34 6.34 0.68 5.68 0 5 C-0.99 5.66 -1.98 6.32 -3 7 C-1.125 2.25 -1.125 2.25 0 0 Z " fill="#262626" transform="translate(163,126)"/>
<path d="M0 0 C1.485 0.99 1.485 0.99 3 2 C3.99 2.33 4.98 2.66 6 3 C6 3.66 6 4.32 6 5 C6.99 5.33 7.98 5.66 9 6 C6.8125 6.3125 6.8125 6.3125 4 6 C1.1875 3.5 1.1875 3.5 -1 1 C-0.67 0.67 -0.34 0.34 0 0 Z " fill="#F9F9F9" transform="translate(276,44)"/>
<path d="M0 0 C1.32 0.66 2.64 1.32 4 2 C3.01 2.495 3.01 2.495 2 3 C1.34786708 5.02463255 1.34786708 5.02463255 1 7 C-0.32 5.68 -1.64 4.36 -3 3 C-2.01 2.01 -1.02 1.02 0 0 Z " fill="#E1E1E1" transform="translate(67,42)"/>
<path d="M0 0 C3 3.75 3 3.75 3 6 C2.01 6 1.02 6 0 6 C0 5.34 0 4.68 0 4 C-0.99 3.67 -1.98 3.34 -3 3 C-2.01 2.01 -1.02 1.02 0 0 Z " fill="#F9F9F9" transform="translate(220,144)"/>
<path d="M0 0 C2.0625 0.4375 2.0625 0.4375 4 1 C3.34 2.98 2.68 4.96 2 7 C1.34 6.67 0.68 6.34 0 6 C-0.6875 3.5 -0.6875 3.5 -1 1 C-0.67 0.67 -0.34 0.34 0 0 Z " fill="#FCFCFC" transform="translate(216,98)"/>
<path d="M0 0 C0.99 0 1.98 0 3 0 C2.67 1.65 2.34 3.3 2 5 C0.35 5 -1.3 5 -3 5 C-1.6875 2.5 -1.6875 2.5 0 0 Z " fill="#F4F4F4" transform="translate(218,86)"/>
<path d="M0 0 C0 0.99 0 1.98 0 3 C-0.639375 3.103125 -1.27875 3.20625 -1.9375 3.3125 C-2.618125 3.539375 -3.29875 3.76625 -4 4 C-4.33 4.99 -4.66 5.98 -5 7 C-5.33 5.68 -5.66 4.36 -6 3 C-2.25 0 -2.25 0 0 0 Z " fill="#242424" transform="translate(71,59)"/>
<path d="M0 0 C2.97 0.495 2.97 0.495 6 1 C5.01 2.485 5.01 2.485 4 4 C2.35 3.67 0.7 3.34 -1 3 C-0.67 2.01 -0.34 1.02 0 0 Z " fill="#F8F8F8" transform="translate(121,59)"/>
<path d="M0 0 C1.98 0.495 1.98 0.495 4 1 C3.67 2.32 3.34 3.64 3 5 C1.68 5 0.36 5 -1 5 C-0.67 3.35 -0.34 1.7 0 0 Z " fill="#F9F9F9" transform="translate(254,46)"/>
<path d="M0 0 C0.66 0 1.32 0 2 0 C2.33 1.65 2.66 3.3 3 5 C1.68 4.67 0.36 4.34 -1 4 C-0.67 2.68 -0.34 1.36 0 0 Z M-2 5 C0 6 0 6 0 6 Z " fill="#F6F6F6" transform="translate(137,82)"/>
<path d="M0 0 C1.98 0.495 1.98 0.495 4 1 C3.34 2.65 2.68 4.3 2 6 C1.01 5.67 0.02 5.34 -1 5 C-0.67 3.35 -0.34 1.7 0 0 Z " fill="#E1E1E1" transform="translate(81,26)"/>
</svg>
